<svg width="148" height="57" viewBox="0 0 148 57" fill="none" xmlns="http://www.w3.org/2000/svg">
<g clip-path="url(#clip0_664_1138)">
<path d="M26.9219 20.6289C26.9219 17.4637 29.3169 15.4463 31.9802 15.4463C34.1044 15.4463 35.4311 16.4525 36.1069 17.6525C36.4075 18.1866 36.1417 18.8624 35.5578 19.0463C35.1255 19.1829 34.656 18.9991 34.4324 18.604C34.0349 17.9034 33.2771 17.3071 31.9802 17.3071C30.4945 17.3071 28.9268 18.373 28.9268 20.6264C28.9268 22.7406 30.4125 23.9034 32.01 23.9034C33.3069 23.9034 34.0945 23.2574 34.5119 22.5394C34.733 22.1618 35.1901 21.9903 35.6075 22.1171C36.1939 22.2934 36.4696 22.9717 36.1665 23.5034C35.4883 24.7009 34.1492 25.794 32.0076 25.794C29.2324 25.799 26.9219 23.7941 26.9219 20.6289Z" fill="#800020"/>
<path d="M42.151 20.0517C42.151 20.3002 41.9472 20.5014 41.6988 20.4939C41.6615 20.4939 41.6267 20.4939 41.5895 20.4939C40.6379 20.4939 39.8106 20.9561 39.8106 22.4418V24.6629C39.8106 25.1771 39.3932 25.5945 38.8789 25.5945C38.3647 25.5945 37.9473 25.1771 37.9473 24.6629V19.6045C37.9473 19.1051 38.3522 18.7002 38.8516 18.7002C39.351 18.7002 39.7559 19.1051 39.7559 19.6045V19.7238C40.1758 18.812 41.1299 18.6455 41.7162 18.6455C41.7162 18.6455 41.7187 18.6455 41.7212 18.6455C41.9597 18.6455 42.151 18.8492 42.151 19.0877V20.0567V20.0517Z" fill="#800020"/>
<path d="M44.7427 27.0366L45.7912 24.7211L43.5129 20.0354C43.2123 19.4168 43.662 18.6963 44.3502 18.6963C44.7154 18.6963 45.0458 18.91 45.1974 19.2429L46.7849 22.731L48.2483 19.2478C48.3874 18.9149 48.7154 18.6963 49.0781 18.6963C49.7315 18.6963 50.1663 19.3696 49.898 19.9658L46.38 27.777C46.2359 28.1 45.9129 28.3062 45.5601 28.3062C44.9067 28.3062 44.4719 27.6304 44.7402 27.0366H44.7427Z" fill="#800020"/>
<path d="M51.829 23.4717C52.1669 23.3971 52.5047 23.5536 52.6911 23.8468C52.8774 24.14 53.2451 24.371 53.7793 24.371C54.3954 24.371 54.6911 24.048 54.6911 23.6853C54.6911 23.3772 54.4799 23.1238 53.9482 23.012L53.0364 22.8009C51.7048 22.5077 51.1035 21.7077 51.1035 20.7412C51.1035 19.5089 52.1967 18.4854 53.6824 18.4854C54.8178 18.4854 55.5184 18.9027 55.9209 19.3996C56.2935 19.8593 56.0575 20.5474 55.4811 20.6791C55.1681 20.7487 54.8352 20.6319 54.6613 20.3636C54.4873 20.0953 54.1942 19.899 53.6973 19.899C53.2004 19.899 52.8153 20.1922 52.8153 20.5847C52.8153 20.9201 53.0687 21.1313 53.4464 21.2009L54.4277 21.412C55.7867 21.6928 56.4724 22.5176 56.4724 23.5263C56.4724 24.6468 55.6029 25.7946 53.7967 25.7946C52.5221 25.7946 51.7619 25.2878 51.3445 24.7139C51.0066 24.2493 51.27 23.5884 51.8315 23.4667L51.829 23.4717Z" fill="#800020"/>
<path d="M60.2661 18.6962H60.8276C61.2847 18.6962 61.6549 19.0664 61.6549 19.5236C61.6549 19.9807 61.2847 20.3509 60.8276 20.3509H60.2661V23.2378C60.2661 23.8391 60.5468 24.0353 61.0785 24.0353C61.0785 24.0353 61.0835 24.0353 61.086 24.0353C61.399 24.0353 61.6524 24.2813 61.6524 24.5943V25.0937C61.6524 25.367 61.4586 25.6005 61.1878 25.6453C61.0288 25.6701 60.8325 25.69 60.6015 25.69C59.2574 25.69 58.4152 24.8925 58.4152 23.5608V20.3534H57.5183C57.3245 20.3534 57.168 20.1969 57.168 20.0031V19.0515C57.168 18.8577 57.3245 18.7012 57.5183 18.7012C58.2462 18.7012 58.5841 18.2242 58.5841 17.6081V17.4813C58.5841 17.0168 58.9593 16.6416 59.4239 16.6416C59.8884 16.6416 60.2636 17.0168 60.2636 17.4813V18.7012L60.2661 18.6962Z" fill="#800020"/>
<path d="M64.9156 21.6232L66.61 21.3698C67.0026 21.3127 67.1293 21.1189 67.1293 20.8804C67.1293 20.3909 66.7516 19.9835 65.9665 19.9835C65.4125 19.9835 65.0274 20.2245 64.8212 20.5673C64.6374 20.8729 64.2821 21.0269 63.9343 20.9524C63.3554 20.8307 63.0721 20.1524 63.4125 19.668C63.8796 19.0046 64.7293 18.4854 65.9516 18.4854C68.138 18.4854 68.9504 19.7176 68.9504 21.104V24.4952C68.9504 24.5673 68.9504 24.6468 68.9553 24.7263C68.9727 25.1959 68.6025 25.5884 68.1305 25.5884H68.0808C67.6286 25.5884 67.2535 25.2232 67.2535 24.771V24.7636C66.9032 25.3101 66.2448 25.7872 65.2212 25.7872C63.7504 25.7872 62.8535 24.7934 62.8535 23.7126C62.8535 22.4804 63.7653 21.7922 64.9131 21.6257L64.9156 21.6232ZM67.1293 22.8008V22.4928L65.574 22.7313C65.097 22.8008 64.7193 23.0667 64.7193 23.6008C64.7193 24.0083 65.0125 24.3984 65.6162 24.3984C66.4013 24.3984 67.1293 24.0207 67.1293 22.8008Z" fill="#800020"/>
<path d="M70.8301 24.6562V16.378C70.8301 15.8637 71.2475 15.4463 71.7617 15.4463C72.276 15.4463 72.6934 15.8637 72.6934 16.378V24.6586C72.6934 25.1729 72.276 25.5903 71.7617 25.5903C71.2475 25.5903 70.8301 25.1729 70.8301 24.6586V24.6562Z" fill="#800020"/>
<path d="M75.6068 15.2783C76.2503 15.2783 76.7546 15.7976 76.7546 16.441C76.7546 17.0845 76.2503 17.5764 75.6068 17.5764C74.9633 17.5764 74.459 17.0572 74.459 16.441C74.459 15.8249 74.9782 15.2783 75.6068 15.2783ZM74.6826 24.6571V19.6286C74.6826 19.1143 75.1 18.6969 75.6143 18.6969C76.1285 18.6969 76.5459 19.1143 76.5459 19.6286V24.6571C76.5459 25.1714 76.1285 25.5888 75.6143 25.5888C75.1 25.5888 74.6826 25.1714 74.6826 24.6571Z" fill="#800020"/>
<path d="M78.0586 24.4026C78.0586 24.1094 78.1654 23.8286 78.3617 23.6125L81.3232 20.3082H78.948C78.5033 20.3082 78.1431 19.9479 78.1431 19.5032C78.1431 19.0585 78.5033 18.6982 78.948 18.6982H82.5828C83.2039 18.6982 83.7058 19.2001 83.7058 19.8212C83.7058 20.0995 83.6014 20.3678 83.4151 20.574L80.3443 23.9653H82.9505C83.4002 23.9653 83.7629 24.328 83.7629 24.7777C83.7629 25.2274 83.4002 25.5901 82.9505 25.5901H79.2462C78.5903 25.5901 78.0611 25.0584 78.0611 24.405L78.0586 24.4026Z" fill="#800020"/>
<path d="M90.5312 23.352C91.048 23.506 91.2616 24.1271 90.9387 24.5594C90.3946 25.2874 89.4877 25.7992 88.2728 25.7992C86.3822 25.7992 84.7151 24.4402 84.7151 22.1147C84.7151 19.916 86.3399 18.4874 88.1064 18.4874C90.2355 18.4874 91.5101 19.8464 91.5101 22.0601C91.5101 22.3781 91.2517 22.634 90.9387 22.634H86.5511C86.5933 23.5458 87.3635 24.2042 88.2877 24.2042C88.9088 24.2042 89.3287 23.983 89.5995 23.6302C89.8033 23.3644 90.1387 23.2377 90.4592 23.3321L90.5312 23.3545V23.352ZM89.6741 21.3595C89.6467 20.6737 89.197 20.0005 88.1337 20.0005C87.1672 20.0005 86.6356 20.7284 86.5933 21.3595H89.6765H89.6741Z" fill="#800020"/>
<path d="M26.9219 37.1308C26.9219 33.9656 29.3169 31.9482 31.9802 31.9482C34.1044 31.9482 35.4311 32.9544 36.1069 34.1544C36.4075 34.6886 36.1417 35.3644 35.5578 35.5482C35.1255 35.6849 34.656 35.501 34.4324 35.106C34.0349 34.4054 33.2771 33.8091 31.9802 33.8091C30.4945 33.8091 28.9268 34.8749 28.9268 37.1283C28.9268 39.2426 30.4125 40.4053 32.01 40.4053C33.3069 40.4053 34.0945 39.7594 34.5119 39.0414C34.733 38.6637 35.1901 38.4923 35.6075 38.619C36.1939 38.7954 36.4696 39.4737 36.1665 40.0053C35.4883 41.2028 34.1492 42.296 32.0076 42.296C29.2349 42.296 26.9219 40.2935 26.9219 37.1258V37.1308Z" fill="#800020"/>
<path d="M39.5172 38.1252L41.2116 37.8718C41.6041 37.8146 41.7308 37.6208 41.7308 37.3823C41.7308 36.8929 41.3532 36.4854 40.5681 36.4854C40.0141 36.4854 39.629 36.7264 39.4228 37.0693C39.2389 37.3749 38.8836 37.5289 38.5358 37.4544C37.9569 37.3326 37.6737 36.6544 38.0141 36.1699C38.4812 35.5066 39.3308 34.9873 40.5532 34.9873C42.7395 34.9873 43.5519 36.2196 43.5519 37.6059V40.9972C43.5519 41.0692 43.5519 41.1488 43.5569 41.2283C43.5743 41.6978 43.2041 42.0904 42.7321 42.0904H42.6824C42.2302 42.0904 41.855 41.7251 41.855 41.273V41.2655C41.5047 41.8121 40.8464 42.2891 39.8228 42.2891C38.352 42.2891 37.4551 41.2953 37.4551 40.2146C37.4551 38.9823 38.3669 38.2941 39.5147 38.1277L39.5172 38.1252ZM41.7308 39.3028V38.9947L40.1756 39.2332C39.6985 39.3028 39.3209 39.5686 39.3209 40.1028C39.3209 40.5102 39.6141 40.9003 40.2178 40.9003C41.0029 40.9003 41.7308 40.5227 41.7308 39.3028Z" fill="#800020"/>
<path d="M49.6314 36.5517C49.6314 36.8002 49.4277 37.0014 49.1793 36.9939C49.142 36.9939 49.1072 36.9939 49.0699 36.9939C48.1184 36.9939 47.2911 37.4561 47.2911 38.9418V41.1629C47.2911 41.6771 46.8737 42.0945 46.3594 42.0945C45.8451 42.0945 45.4277 41.6771 45.4277 41.1629V36.1045C45.4277 35.6051 45.8327 35.2002 46.3321 35.2002C46.8315 35.2002 47.2364 35.6051 47.2364 36.1045V36.2238C47.6563 35.312 48.6103 35.1455 49.1967 35.1455C49.1967 35.1455 49.1991 35.1455 49.2016 35.1455C49.4401 35.1455 49.6314 35.3492 49.6314 35.5877V36.5567V36.5517Z" fill="#800020"/>
<path d="M56.1755 39.8519C56.6923 40.0059 56.9059 40.627 56.5829 41.0593C56.0388 41.7873 55.132 42.2991 53.9171 42.2991C52.0264 42.2991 50.3594 40.9401 50.3594 38.6146C50.3594 36.4159 51.9842 34.9873 53.7507 34.9873C55.8798 34.9873 57.1544 36.3463 57.1544 38.56C57.1544 38.5624 57.1544 38.5649 57.1544 38.5674C57.1544 38.8804 56.896 39.1339 56.5829 39.1339H52.1954C52.2376 40.0457 53.0078 40.704 53.932 40.704C54.5531 40.704 54.973 40.4829 55.2438 40.1301C55.4475 39.8643 55.7829 39.7376 56.1034 39.832L56.1755 39.8544V39.8519ZM55.3183 37.8593C55.291 37.1736 54.8413 36.5003 53.778 36.5003C52.8115 36.5003 52.2799 37.2283 52.2376 37.8593H55.3208H55.3183Z" fill="#800020"/>
<path d="M68.5785 34.8988C68.1834 35.0206 67.7561 34.8616 67.535 34.5113C67.2766 34.1063 66.7996 33.7411 65.9747 33.7411C65.0356 33.7411 64.4195 34.3423 64.4195 35.0007C64.4195 35.5473 64.7698 35.9821 65.4977 36.1212L66.8841 36.387C68.6903 36.7373 69.6592 37.915 69.6592 39.3162C69.6592 40.8441 68.3847 42.3845 66.0716 42.3845C64.0692 42.3845 62.9189 41.4056 62.412 40.315C62.171 39.7932 62.4717 39.182 63.0257 39.0355C63.4679 38.9187 63.9176 39.1448 64.1164 39.5572C64.422 40.1932 65.063 40.6628 66.0841 40.6628C67.1052 40.6628 67.6965 40.1435 67.6965 39.4429C67.6965 38.869 67.2617 38.4193 66.4915 38.2653L65.1052 37.9845C63.5226 37.6616 62.499 36.6404 62.499 35.1398C62.499 33.3734 64.0816 32.0293 65.9598 32.0293C67.6219 32.0293 68.5785 32.7225 69.0853 33.52C69.4108 34.0343 69.1598 34.7175 68.5785 34.8939V34.8988Z" fill="#800020"/>
<path d="M76.402 39.9378C76.9188 40.0918 77.1325 40.713 76.8095 41.1453C76.2654 41.8732 75.3586 42.385 74.1437 42.385C72.253 42.385 70.5859 41.026 70.5859 38.7005C70.5859 36.5018 72.2108 35.0732 73.9772 35.0732C76.1064 35.0732 77.3809 36.4322 77.3809 38.6459C77.3809 38.6484 77.3809 38.6509 77.3809 38.6533C77.3809 38.9664 77.1225 39.2198 76.8095 39.2198H72.4219C72.4642 40.1316 73.2344 40.79 74.1586 40.79C74.7797 40.79 75.1996 40.5689 75.4704 40.2161C75.6741 39.9502 76.0095 39.8235 76.33 39.9179L76.402 39.9403V39.9378ZM75.5449 37.9453C75.5176 37.2596 75.0679 36.5863 74.0045 36.5863C73.0381 36.5863 72.5064 37.3142 72.4642 37.9453H75.5474H75.5449Z" fill="#800020"/>
<path d="M83.0533 36.6357C83.0533 36.8841 82.8496 37.0854 82.6011 37.0779C82.5639 37.0779 82.5291 37.0779 82.4918 37.0779C81.5403 37.0779 80.713 37.54 80.713 39.0257V41.2468C80.713 41.7611 80.2956 42.1785 79.7813 42.1785C79.267 42.1785 78.8496 41.7611 78.8496 41.2468V36.1885C78.8496 35.6891 79.2546 35.2841 79.754 35.2841C80.2533 35.2841 80.6583 35.6891 80.6583 36.1885V36.3077C81.0782 35.3959 82.0322 35.2295 82.6185 35.2295C82.6185 35.2295 82.621 35.2295 82.6235 35.2295C82.862 35.2295 83.0533 35.4332 83.0533 35.6717V36.6407V36.6357Z" fill="#800020"/>
<path d="M87.4662 42.1751C86.9072 42.1751 86.4054 41.8372 86.1942 41.3204L84.2538 36.5726C84.0029 35.9565 84.4551 35.2832 85.1209 35.2832C85.5135 35.2832 85.8638 35.5267 85.9979 35.8944L87.4811 39.9068L88.9072 35.8869C89.0364 35.5267 89.3768 35.2832 89.7594 35.2832C90.3954 35.2832 90.8327 35.9217 90.6041 36.5155L88.7482 41.2981C88.542 41.8273 88.0352 42.1751 87.4662 42.1751Z" fill="#800020"/>
<path d="M93.142 31.8652C93.7854 31.8652 94.2898 32.3845 94.2898 33.028C94.2898 33.6714 93.7854 34.1634 93.142 34.1634C92.4985 34.1634 91.9941 33.6441 91.9941 33.028C91.9941 32.4118 92.5134 31.8652 93.142 31.8652ZM92.2177 41.2441V36.2155C92.2177 35.7012 92.6351 35.2838 93.1494 35.2838C93.6637 35.2838 94.0811 35.7012 94.0811 36.2155V41.2441C94.0811 41.7583 93.6637 42.1757 93.1494 42.1757C92.6351 42.1757 92.2177 41.7583 92.2177 41.2441Z" fill="#800020"/>
<path d="M97.4155 38.7298C97.4155 39.977 98.228 40.6776 99.182 40.6776C99.8081 40.6776 100.23 40.4044 100.489 40.0665C100.72 39.7634 101.11 39.6292 101.473 39.7509C102.044 39.9422 102.25 40.6354 101.888 41.1174C101.346 41.8354 100.442 42.3894 99.1845 42.3894C97.1522 42.3894 95.5547 40.8491 95.5547 38.7323C95.5547 36.6156 97.1249 35.0752 99.1273 35.0752C100.409 35.0752 101.311 35.6168 101.85 36.3298C102.218 36.8168 102.007 37.5199 101.428 37.7162C101.053 37.8429 100.653 37.6988 100.417 37.3808C100.168 37.0479 99.7733 36.7994 99.1721 36.7994C98.2205 36.7994 97.4205 37.4851 97.4205 38.7323L97.4155 38.7298Z" fill="#800020"/>
<path d="M109.004 39.9378C109.52 40.0918 109.734 40.713 109.411 41.1453C108.867 41.8732 107.96 42.385 106.745 42.385C104.855 42.385 103.188 41.026 103.188 38.7005C103.188 36.5018 104.812 35.0732 106.579 35.0732C108.708 35.0732 109.982 36.4322 109.982 38.6459C109.982 38.9117 109.955 39.1925 109.955 39.2198H105.024C105.066 40.1316 105.836 40.79 106.76 40.79C107.381 40.79 107.801 40.5689 108.072 40.2161C108.276 39.9502 108.611 39.8235 108.932 39.9179L109.004 39.9403V39.9378ZM108.146 37.9453C108.119 37.2596 107.669 36.5863 106.606 36.5863C105.64 36.5863 105.108 37.3142 105.066 37.9453H108.149H108.146Z" fill="#800020"/>
<path d="M111.772 40.0566C112.11 39.9821 112.448 40.1386 112.634 40.4318C112.821 40.7249 113.188 40.956 113.723 40.956C114.339 40.956 114.634 40.633 114.634 40.2703C114.634 39.9622 114.423 39.7088 113.892 39.597L112.98 39.3858C111.648 39.0926 111.047 38.2926 111.047 37.3262C111.047 36.0939 112.14 35.0703 113.626 35.0703C114.761 35.0703 115.462 35.4877 115.864 35.9846C116.237 36.4442 116.001 37.1324 115.424 37.2641C115.111 37.3336 114.779 37.2169 114.605 36.9486C114.431 36.6802 114.138 36.484 113.641 36.484C113.144 36.484 112.759 36.7771 112.759 37.1697C112.759 37.5051 113.012 37.7163 113.39 37.7858L114.371 37.997C115.73 38.2777 116.416 39.1026 116.416 40.1113C116.416 41.2318 115.546 42.3796 113.74 42.3796C112.466 42.3796 111.705 41.8728 111.288 41.2988C110.95 40.8342 111.213 40.1734 111.775 40.0516L111.772 40.0566Z" fill="#800020"/>
</g>
<path d="M-0.919026 22.2713C1.07595 22.2713 2.6932 20.6541 2.6932 18.6591C2.6932 16.6641 1.07595 15.0469 -0.919026 15.0469C-2.914 15.0469 -4.53125 16.6641 -4.53125 18.6591C-4.53125 20.6541 -2.914 22.2713 -0.919026 22.2713Z" fill="#800020"/>
<path d="M1.15941 25.7611L10.9927 21.8622C12.1992 21.3843 13.138 20.4001 13.5561 19.1697L16.9127 9.29821C16.9342 9.23371 16.9127 9.09753 16.9127 9.09753C16.8387 8.88013 16.5591 8.81562 16.3967 8.98047L0.703106 24.87C0.597988 24.9775 0.540651 25.1232 0.543041 25.2737V25.3597C0.552597 25.6703 0.86795 25.8781 1.15702 25.7635L1.15941 25.7611Z" fill="#4FB7FF"/>
<path d="M9.67375 38.5932C9.2485 37.5253 8.6178 36.553 7.77925 35.7694C6.03047 34.1377 1.73976 30.7572 0.82715 29.8732C0.70292 29.7538 0.492684 29.8231 0.473571 29.9951C0.413845 30.4777 0.447293 31.0128 0.588246 31.4452L5.99941 42.8171C6.54411 43.8396 7.30622 44.7307 8.23316 45.4259L12.2993 48.8231C12.5287 48.9999 12.844 48.761 12.7341 48.4934C11.9887 46.6777 10.6294 40.9918 9.67375 38.5932Z" fill="#4FB7FF"/>
<path d="M0.770343 28.2319L9.07464 34.6441C9.53094 35.0049 10.1784 34.5533 9.99919 34.0015L7.9494 29.6606C7.76544 29.092 7.89206 28.2295 8.28625 27.7804L12.0084 24.2852C12.4527 23.8098 11.9486 23.0597 11.3394 23.2914L0.901741 27.2763C0.488438 27.4244 0.411989 27.9739 0.767955 28.2319H0.770343Z" fill="#800020"/>
<defs>
<clipPath id="clip0_664_1138">
<rect width="89.4901" height="27.1054" fill="white" transform="translate(26.9219 15.2783)"/>
</clipPath>
</defs>
</svg>
