<svg width="1312" height="430" viewBox="0 0 1312 430" fill="none" xmlns="http://www.w3.org/2000/svg">
<g opacity="0.64">
<path opacity="0.4" d="M217.311 255.107C280.451 306.626 572.523 546.791 887.837 282.997C1140.09 71.9615 1130.33 120.693 1290.31 150.519" stroke="url(#paint0_linear_588_6357)" stroke-width="0.774727"/>
<path opacity="0.4" d="M217.311 255.107C280.451 306.626 572.523 546.791 887.837 282.997C1140.09 71.9615 1130.33 120.693 1290.31 150.519" stroke="url(#paint1_linear_588_6357)" stroke-width="0.774727"/>
<path opacity="0.4" d="M0 292.295C61.849 162.528 253.258 38.5721 417.19 38.5721C622.106 38.5721 778.213 137.737 1006.76 324.834C1189.59 474.511 1286.43 431.359 1312 391.073" stroke="url(#paint2_linear_588_6357)" stroke-width="0.774727"/>
<path opacity="0.4" d="M50.7446 368.611C96.97 254.21 230.946 20.6814 397.048 1.77807C604.674 -21.8511 763.881 262.468 937.807 262.474C1014.5 262.476 1163.51 216.894 1243.05 190.424" stroke="url(#paint3_linear_588_6357)" stroke-width="0.774727"/>
<circle cx="87.9315" cy="150.133" r="2.32418" fill="black"/>
<circle cx="124.344" cy="178.023" r="2.32418" fill="black"/>
<circle cx="111.173" cy="248.523" r="2.32418" fill="black"/>
<circle cx="180.899" cy="147.034" r="2.32418" fill="black"/>
<circle cx="361.41" cy="350.012" r="2.32418" fill="black"/>
<circle cx="508.608" cy="16.8797" r="2.32418" fill="black"/>
<circle cx="1149.31" cy="123.792" r="2.32418" fill="black"/>
<circle cx="1133.04" cy="224.507" r="2.32418" fill="black"/>
<circle cx="1154.73" cy="415.089" r="2.32418" fill="black"/>
</g>
<defs>
<linearGradient id="paint0_linear_588_6357" x1="229.319" y1="264.018" x2="806.491" y2="335.293" gradientUnits="userSpaceOnUse">
<stop/>
<stop offset="1" stop-color="white" stop-opacity="0"/>
</linearGradient>
<linearGradient id="paint1_linear_588_6357" x1="899.458" y1="277.575" x2="1163.64" y2="123.792" gradientUnits="userSpaceOnUse">
<stop stop-opacity="0"/>
<stop stop-opacity="0.0830081"/>
<stop offset="1"/>
</linearGradient>
<linearGradient id="paint2_linear_588_6357" x1="895.5" y1="193.5" x2="614.579" y2="479.014" gradientUnits="userSpaceOnUse">
<stop/>
<stop offset="1" stop-opacity="0"/>
</linearGradient>
<linearGradient id="paint3_linear_588_6357" x1="877" y1="-50" x2="557.5" y2="432" gradientUnits="userSpaceOnUse">
<stop/>
<stop offset="1" stop-opacity="0"/>
</linearGradient>
</defs>
</svg>
