<svg width="200" height="57" viewBox="0 0 200 57" fill="none" xmlns="http://www.w3.org/2000/svg">
<path d="M55.7189 29.2114V47.5346C55.7189 49.3231 54.2708 50.7712 52.4881 50.7712C52.1535 50.7712 51.8304 50.7193 51.5304 50.627C50.2093 50.2173 49.2516 48.9885 49.2516 47.5346V29.2114C49.2516 24.5556 45.4785 20.7767 40.8169 20.7767H32.2495V14.3036H40.8169C49.0496 14.3036 55.7189 20.9786 55.7189 29.2056V29.2114Z" fill="#2EACE5"/>
<path d="M55.7189 29.2116V47.5348C55.7189 49.3233 54.2708 50.7713 52.4881 50.7713C52.1535 50.7713 51.8304 50.7194 51.5304 50.6271C51.2535 50.1079 51.0977 49.5079 51.0977 48.8733V27.8385C51.0977 22.4903 46.8285 18.1576 41.5669 18.1576H32.2495V14.3095H40.8169C49.0496 14.3095 55.7189 20.9846 55.7189 29.2116Z" fill="#57BAE5"/>
<path d="M49.0665 34.2829V40.7503H40.0375C31.8048 40.7503 25.1355 34.081 25.1355 25.8482V10.2366C25.1355 8.92693 25.9086 7.80193 27.0221 7.29424C27.4317 7.10385 27.8874 7 28.3663 7C29.2605 7 30.0682 7.36347 30.6509 7.94617C31.2336 8.52887 31.5971 9.33654 31.5971 10.2308V25.8424C31.5971 30.4982 35.376 34.2771 40.0318 34.2771H49.0607L49.0665 34.2829Z" fill="#244AB4"/>
<path d="M49.0664 34.2829V40.7503H43.1818C34.2509 40.7503 27.0105 33.5098 27.0105 24.579V7.63461C27.0105 7.51922 27.0105 7.40385 27.0278 7.29424C27.4374 7.10385 27.8932 7 28.372 7C29.2663 7 30.074 7.36347 30.6567 7.94617C31.2394 8.52887 31.6028 9.33654 31.6028 10.2308V25.8424C31.6028 30.4982 35.3817 34.2771 40.0375 34.2771H49.0664V34.2829Z" fill="#4563B4"/>
<path d="M65.8843 25.1728V11.7708H70.7651C74.942 11.7708 77.7171 14.5112 77.7171 18.4516C77.7171 22.392 74.942 25.1728 70.7651 25.1728H65.8843ZM68.7574 22.7786H70.7651C73.3324 22.7786 74.769 20.9959 74.769 18.4516C74.769 15.9074 73.3324 14.165 70.7651 14.165H68.7574V22.7786Z" fill="#4563B4"/>
<path d="M78.865 20.2689C78.865 17.2054 80.8727 15.215 83.9189 15.215C86.9651 15.215 88.8574 17.0554 88.8978 19.9458C88.8978 20.2343 88.8805 20.5574 88.8228 20.8631H81.6804V20.9959C81.7381 22.392 82.6381 23.2343 83.9997 23.2343C85.09 23.2343 85.8574 22.7555 86.0881 21.8381H88.7478C88.442 23.7535 86.7401 25.2824 84.115 25.2824C80.8439 25.2824 78.8708 23.3093 78.8708 20.2631L78.865 20.2689ZM86.1804 19.1035C85.99 17.8977 85.165 17.2285 83.942 17.2285C82.7189 17.2285 81.8939 17.9381 81.7381 19.1035H86.1804Z" fill="#4563B4"/>
<path d="M100.621 20.3849C100.621 23.4484 98.7055 25.4042 96.0631 25.4042C94.7016 25.4042 93.7266 24.8503 93.0977 24.0426V29.1138H90.3977V15.4406H92.7516L93.017 16.8022C93.6516 15.9599 94.6439 15.3252 96.0401 15.3252C98.6997 15.3079 100.615 17.281 100.615 20.3791L100.621 20.3849ZM97.8805 20.3445C97.8805 18.6772 96.9228 17.5291 95.4516 17.5291C93.9804 17.5291 93.0573 18.6772 93.0573 20.3445C93.0573 22.0118 93.9747 23.1945 95.4516 23.1945C96.9285 23.1945 97.8805 22.0292 97.8805 20.3445Z" fill="#4563B4"/>
<path d="M101.706 20.2689C101.706 17.2054 103.713 15.215 106.759 15.215C109.806 15.215 111.698 17.0554 111.738 19.9458C111.738 20.2343 111.721 20.5574 111.663 20.8631H104.521V20.9959C104.579 22.392 105.479 23.2343 106.84 23.2343C107.931 23.2343 108.698 22.7555 108.929 21.8381H111.588C111.283 23.7535 109.581 25.2824 106.956 25.2824C103.684 25.2824 101.711 23.3093 101.711 20.2631L101.706 20.2689ZM109.021 19.1035C108.831 17.8977 108.006 17.2285 106.783 17.2285C105.559 17.2285 104.734 17.9381 104.579 19.1035H109.021Z" fill="#4563B4"/>
<path d="M122.804 19.7152V25.1729H120.104V19.9864C120.104 18.3191 119.469 17.4421 118.113 17.4421C116.758 17.4421 115.909 18.4402 115.909 20.1421V25.1787H113.209V15.3363H115.563L115.811 16.5594C116.446 15.7921 117.346 15.2209 118.858 15.2209C120.981 15.2209 122.804 16.3517 122.804 19.721V19.7152Z" fill="#4563B4"/>
<path d="M131.608 11.7712H134.308V25.1732H131.954L131.688 23.8117C131.037 24.654 130.079 25.2886 128.665 25.2886C126.023 25.2886 124.09 23.3559 124.09 20.2347C124.09 17.1136 126.023 15.2155 128.648 15.2155C130.01 15.2155 130.985 15.752 131.613 16.5539V11.7654L131.608 11.7712ZM131.648 20.2751C131.648 18.5905 130.731 17.4251 129.254 17.4251C127.777 17.4251 126.842 18.5732 126.842 20.2578C126.842 21.9424 127.783 23.0905 129.254 23.0905C130.725 23.0905 131.648 21.9424 131.648 20.2751Z" fill="#4563B4"/>
<path d="M145.869 22.8939V25.1728H144.49C143.094 25.1728 142.65 24.5036 142.673 23.5632C141.986 24.6536 140.988 25.2882 139.454 25.2882C137.331 25.2882 135.796 24.2728 135.796 22.3978C135.796 20.3093 137.365 19.1208 140.313 19.1208H142.263V18.642C142.263 17.7593 141.634 17.1881 140.504 17.1881C139.448 17.1881 138.744 17.667 138.629 18.3939H136.027C136.217 16.4785 137.982 15.215 140.584 15.215C143.342 15.215 144.929 16.4381 144.929 18.7978V22.2824C144.929 22.8016 145.142 22.8939 145.563 22.8939H145.869ZM142.269 20.9208H140.296C139.165 20.9208 138.513 21.3824 138.513 22.2016C138.513 22.8882 139.067 23.3324 139.967 23.3324C141.386 23.3324 142.246 22.4497 142.263 21.1112V20.9208H142.269Z" fill="#4563B4"/>
<path d="M157.148 20.2343C157.148 23.2805 155.233 25.2882 152.573 25.2882C151.154 25.2882 150.179 24.6767 149.55 23.8344L149.285 25.1728H146.931V11.7708H149.631V16.5766C150.283 15.792 151.24 15.2151 152.596 15.2151C155.238 15.2151 157.154 17.1132 157.154 20.2343H157.148ZM154.408 20.2516C154.408 18.567 153.45 17.4189 151.979 17.4189C150.508 17.4189 149.585 18.567 149.585 20.2343C149.585 21.9016 150.502 23.0844 151.979 23.0844C153.456 23.0844 154.408 21.9362 154.408 20.2516Z" fill="#4563B4"/>
<path d="M158.642 11.7708H161.342V25.1728H158.642V11.7708Z" fill="#4563B4"/>
<path d="M162.831 20.2689C162.831 17.2054 164.839 15.215 167.885 15.215C170.931 15.215 172.823 17.0554 172.864 19.9458C172.864 20.2343 172.847 20.5574 172.789 20.8631H165.646V20.9959C165.704 22.392 166.604 23.2343 167.966 23.2343C169.056 23.2343 169.823 22.7555 170.054 21.8381H172.714C172.408 23.7535 170.706 25.2824 168.081 25.2824C164.81 25.2824 162.837 23.3093 162.837 20.2631L162.831 20.2689ZM170.147 19.1035C169.956 17.8977 169.131 17.2285 167.908 17.2285C166.685 17.2285 165.86 17.9381 165.704 19.1035H170.147Z" fill="#4563B4"/>
<path d="M65.8843 32.6151H68.7574V37.9978H74.0824V32.6151H76.9555V46.0171H74.0824V40.4844H68.7574V46.0171H65.8843V32.6151Z" fill="#4563B4"/>
<path d="M78.634 41.1132C78.634 38.0497 80.6417 36.0593 83.6879 36.0593C86.7341 36.0593 88.6264 37.8997 88.6668 40.7901C88.6668 41.0786 88.6495 41.4017 88.5918 41.7074H81.4494V41.8402C81.5071 43.2363 82.4071 44.0786 83.7687 44.0786C84.8591 44.0786 85.6264 43.5998 85.8572 42.6824H88.5168C88.211 44.5978 86.5091 46.1267 83.8841 46.1267C80.6129 46.1267 78.6398 44.1536 78.6398 41.1074L78.634 41.1132ZM85.9495 39.9478C85.7591 38.742 84.9341 38.0728 83.711 38.0728C82.4879 38.0728 81.6629 38.7824 81.5071 39.9478H85.9495Z" fill="#4563B4"/>
<path d="M99.8249 43.7382V46.0171H98.446C97.0498 46.0171 96.6056 45.3478 96.6287 44.4074C95.9364 45.4978 94.9441 46.1325 93.4094 46.1325C91.2863 46.1325 89.7517 45.1171 89.7517 43.2421C89.7517 41.1536 91.321 39.9651 94.2691 39.9651H96.2191V39.4863C96.2191 38.6036 95.5902 38.0324 94.4594 38.0324C93.4037 38.0324 92.6998 38.5113 92.5844 39.2382H89.9825C90.1729 37.3228 91.9383 36.0593 94.5402 36.0593C97.2979 36.0593 98.8845 37.2824 98.8845 39.6421V43.1267C98.8845 43.6459 99.0979 43.7382 99.5191 43.7382H99.8249ZM96.2248 41.7651H94.2517C93.121 41.7651 92.469 42.2267 92.469 43.0459C92.469 43.7325 93.0229 44.1767 93.9229 44.1767C95.3421 44.1767 96.2018 43.294 96.2191 41.9555V41.7651H96.2248Z" fill="#4563B4"/>
<path d="M100.88 32.6151H103.58V46.0171H100.88V32.6151Z" fill="#4563B4"/>
<path d="M106.165 38.4537H104.538V36.1748H106.165V33.4171H108.865V36.1748H111.127V38.4537H108.865V42.7633C108.865 43.4499 109.13 43.7384 109.84 43.7384H111.179V46.0172H108.975C107.1 46.0172 106.159 45.0768 106.159 43.2018V38.4537H106.165Z" fill="#4563B4"/>
<path d="M122.013 40.5594V46.0171H119.313V40.7901C119.313 39.1805 118.661 38.2805 117.323 38.2805C115.984 38.2805 115.119 39.2786 115.119 40.9632V46.0171H112.419V32.6151H115.119V37.3805C115.754 36.6132 116.631 36.0593 118.027 36.0593C120.207 36.0593 122.007 37.2247 122.007 40.5594H122.013Z" fill="#4563B4"/>
<path d="M128.14 39.3131C128.14 35.1939 130.65 32.4996 134.706 32.4996C137.884 32.4996 140.123 34.49 140.469 37.4035H137.561C137.215 35.9093 136.142 34.9343 134.556 34.9343C132.375 34.9343 131.071 36.7343 131.071 39.3189C131.071 41.9036 132.352 43.7036 134.515 43.7036C136.142 43.7036 137.215 42.7285 137.561 41.2343H140.452C140.129 44.142 137.809 46.1382 134.538 46.1382C130.557 46.1382 128.146 43.4382 128.146 39.3247L128.14 39.3131Z" fill="#4563B4"/>
<path d="M151.558 43.7382V46.0171H150.179C148.783 46.0171 148.339 45.3478 148.362 44.4074C147.669 45.4978 146.677 46.1325 145.142 46.1325C143.019 46.1325 141.485 45.1171 141.485 43.2421C141.485 41.1536 143.054 39.9651 146.002 39.9651H147.952V39.4863C147.952 38.6036 147.323 38.0324 146.192 38.0324C145.137 38.0324 144.433 38.5113 144.317 39.2382H141.715C141.906 37.3228 143.671 36.0593 146.273 36.0593C149.031 36.0593 150.617 37.2824 150.617 39.6421V43.1267C150.617 43.6459 150.831 43.7382 151.252 43.7382H151.558ZM147.958 41.7651H145.985C144.854 41.7651 144.202 42.2267 144.202 43.0459C144.202 43.7325 144.756 44.1767 145.656 44.1767C147.075 44.1767 147.935 43.294 147.952 41.9555V41.7651H147.958Z" fill="#4563B4"/>
<path d="M158.602 36.1747V38.6266H157.529C155.919 38.6266 155.308 39.6997 155.308 41.194V46.0171H152.608V36.1747H155.06L155.308 37.6516C155.844 36.7689 156.612 36.1747 158.141 36.1747H158.602Z" fill="#4563B4"/>
<path d="M159.098 41.1132C159.098 38.0497 161.106 36.0593 164.152 36.0593C167.198 36.0593 169.091 37.8997 169.131 40.7901C169.131 41.0786 169.114 41.4017 169.056 41.7074H161.914V41.8402C161.971 43.2363 162.872 44.0786 164.233 44.0786C165.323 44.0786 166.091 43.5998 166.322 42.6824H168.981C168.675 44.5978 166.973 46.1267 164.348 46.1267C161.077 46.1267 159.104 44.1536 159.104 41.1074L159.098 41.1132ZM166.414 39.9478C166.223 38.742 165.398 38.0728 164.175 38.0728C162.952 38.0728 162.127 38.7824 161.971 39.9478H166.414Z" fill="#4563B4"/>
</svg>
