<svg width="24" height="25" viewBox="0 0 24 25" fill="none" xmlns="http://www.w3.org/2000/svg">
<g id="Icon / Dribble">
<path id="Vector" fill-rule="evenodd" clip-rule="evenodd" d="M12 3.88574C7.03145 3.88574 3 7.91719 3 12.8857C3 17.8543 7.03145 21.8857 12 21.8857C16.9588 21.8857 21 17.8543 21 12.8857C21 7.91719 16.9588 3.88574 12 3.88574ZM17.9447 8.03433C19.0184 9.34236 19.6627 11.0115 19.6822 12.8174C19.4284 12.7686 16.8904 12.2512 14.333 12.5733C14.2744 12.4464 14.2256 12.3098 14.167 12.1731C14.0108 11.8022 13.8352 11.4215 13.6594 11.0603C16.4902 9.90854 17.7787 8.24908 17.9447 8.03433ZM12 5.21329C13.9523 5.21329 15.7386 5.9454 17.0955 7.14605C16.9588 7.34127 15.7972 8.89333 13.064 9.91827C11.8048 7.60483 10.4089 5.71112 10.1942 5.41828C10.77 5.28162 11.3753 5.21329 12 5.21329ZM8.72996 5.93563C8.93494 6.20895 10.3015 8.11242 11.5803 10.3771C7.98807 11.3337 4.81562 11.3141 4.47397 11.3141C4.9718 8.93238 6.58243 6.95081 8.72996 5.93563ZM4.30803 12.8955C4.30803 12.8174 4.30803 12.7393 4.30803 12.6612C4.63991 12.6709 8.36876 12.7198 12.205 11.5679C12.4295 11.9974 12.6345 12.4367 12.8297 12.8759C12.7321 12.9052 12.6247 12.9345 12.5271 12.9638C8.56399 14.2425 6.45553 17.7371 6.27983 18.0299C5.05965 16.6731 4.30803 14.8673 4.30803 12.8955ZM12 20.5777C10.2234 20.5777 8.58352 19.9725 7.28525 18.9573C7.42191 18.6742 8.98371 15.6677 13.3178 14.1547C13.3373 14.1449 13.3471 14.1449 13.3666 14.1352C14.4501 16.9367 14.8894 19.2891 15.0065 19.9627C14.0792 20.3629 13.064 20.5777 12 20.5777ZM16.2852 19.2599C16.2072 18.7913 15.7972 16.5462 14.7917 13.7837C17.2028 13.403 19.3113 14.0278 19.5749 14.1157C19.243 16.2534 18.013 18.0983 16.2852 19.2599Z" fill="#0A0A0A"/>
</g>
</svg>
