<svg width="24" height="25" viewBox="0 0 24 25" fill="none" xmlns="http://www.w3.org/2000/svg">
<g id="Icon / LinkedIn">
<path id="Vector" fill-rule="evenodd" clip-rule="evenodd" d="M4.5 4.12842C3.67157 4.12842 3 4.79999 3 5.62842V20.6284C3 21.4568 3.67157 22.1284 4.5 22.1284H19.5C20.3284 22.1284 21 21.4568 21 20.6284V5.62842C21 4.79999 20.3284 4.12842 19.5 4.12842H4.5ZM8.52076 8.13114C8.52639 9.08739 7.81061 9.67661 6.96123 9.67239C6.16107 9.66817 5.46357 9.03114 5.46779 8.13255C5.47201 7.28739 6.13998 6.60817 7.00764 6.62786C7.88795 6.64755 8.52639 7.29302 8.52076 8.13114ZM12.2797 10.8902H9.75971H9.7583V19.45H12.4217V19.2503C12.4217 18.8704 12.4214 18.4904 12.4211 18.1103C12.4203 17.0965 12.4194 16.0816 12.4246 15.0681C12.426 14.822 12.4372 14.5661 12.5005 14.3312C12.7381 13.4537 13.5271 12.887 14.4074 13.0263C14.9727 13.1148 15.3467 13.4425 15.5042 13.9755C15.6013 14.3087 15.6449 14.6673 15.6491 15.0147C15.6605 16.0623 15.6589 17.1099 15.6573 18.1576C15.6567 18.5274 15.6561 18.8974 15.6561 19.2672V19.4486H18.328V19.2433C18.328 18.7913 18.3278 18.3394 18.3275 17.8875C18.327 16.758 18.3264 15.6285 18.3294 14.4986C18.3308 13.9881 18.276 13.4847 18.1508 12.9911C17.9638 12.257 17.5771 11.6495 16.9485 11.2108C16.5027 10.8986 16.0133 10.6975 15.4663 10.675C15.404 10.6724 15.3412 10.669 15.2781 10.6656C14.9984 10.6505 14.7141 10.6351 14.4467 10.6891C13.6817 10.8424 13.0096 11.1925 12.5019 11.8098C12.4429 11.8806 12.3852 11.9525 12.2991 12.0598L12.2797 12.0841V10.8902ZM5.68164 19.4528H8.33242V10.8957H5.68164V19.4528Z" fill="#0A0A0A"/>
</g>
</svg>
