<svg width="32" height="32" viewBox="0 0 32 32" fill="none" xmlns="http://www.w3.org/2000/svg">
<g id="Frame">
<path id="Vector" d="M5.33455 4H26.6679C27.4043 4 28.0012 4.59696 28.0012 5.33333V26.6667C28.0012 27.4031 27.4043 28 26.6679 28H5.33455C4.59817 28 4.00122 27.4031 4.00122 26.6667V5.33333C4.00122 4.59696 4.59817 4 5.33455 4ZM6.66789 6.66667V25.3333H25.3346V6.66667H6.66789ZM10.0012 12C8.89665 12 8.00122 11.1046 8.00122 10C8.00122 8.89543 8.89665 8 10.0012 8C11.1058 8 12.0012 8.89543 12.0012 10C12.0012 11.1046 11.1058 12 10.0012 12ZM8.66789 13.3333H11.3346V23.3333H8.66789V13.3333ZM16.0012 13.906C16.7804 13.1538 17.6886 12.6667 18.6679 12.6667C21.4292 12.6667 23.3346 14.9052 23.3346 17.6667V23.3333H20.6679V17.6667C20.6679 16.378 19.6232 15.3333 18.3346 15.3333C17.0459 15.3333 16.0012 16.378 16.0012 17.6667V23.3333H13.3346V13.3333H16.0012V13.906Z" fill="#0A0A0A"/>
</g>
</svg>
