<svg width="200" height="57" viewBox="0 0 200 57" fill="none" xmlns="http://www.w3.org/2000/svg">
<path d="M125.515 26.9975C123.29 31.4737 118.67 34.5504 113.33 34.5504C105.883 34.5504 99.8339 28.5629 99.7319 21.1399H105.084C105.11 22.3514 105.4 23.6209 106.001 24.8944C106.703 26.3758 107.897 27.5793 109.378 28.279C113.016 29.9983 116.607 29.1666 118.942 26.9975H125.515Z" fill="#0073FF"/>
<path d="M125.515 14.4387H118.942C117.468 13.0712 115.497 12.2356 113.33 12.2356C108.95 12.2356 105.367 15.6502 105.098 19.9624H99.7417C99.8017 18.3531 100.142 16.6838 100.807 15.0005C102.073 11.7958 104.614 9.24681 107.814 7.97533C115.323 4.99055 122.548 8.47312 125.515 14.4407V14.4387Z" fill="#0073FF"/>
<path d="M79.7497 43.5447L78.6102 43.5647L78.5682 41.0238L77.2728 43.5867L76.731 43.5967L75.3435 41.0637L75.3855 43.6187L74.246 43.6387L74.166 38.8706L75.3195 38.8506L76.9709 41.8474L78.5222 38.7967L79.6678 38.7767L79.7477 43.5447H79.7497Z" fill="#0073FF"/>
<path d="M84.0961 43.4707L83.7462 42.6091L81.739 42.6431L81.4192 43.5167L80.1597 43.5387L82.0729 38.7387L83.2744 38.7187L85.3455 43.4528L84.0941 43.4727L84.0961 43.4707ZM82.7006 40.0481L82.1229 41.6235L83.3404 41.6035L82.7026 40.0481H82.7006Z" fill="#0073FF"/>
<path d="M90.3155 43.3688L89.3479 43.3848L86.8889 40.6639L86.9349 43.4248L85.7614 43.4448L85.6814 38.6767L86.657 38.6607L89.118 41.4676L89.07 38.6208L90.2375 38.6008L90.3175 43.3688H90.3155Z" fill="#0073FF"/>
<path d="M94.6417 43.2948L94.2919 42.4332L92.2847 42.4672L91.9648 43.3408L90.7053 43.3628L92.6185 38.5628L93.82 38.5428L95.8932 43.2768L94.6417 43.2968V43.2948ZM93.2463 39.8722L92.6685 41.4476L93.886 41.4276L93.2483 39.8722H93.2463Z" fill="#0073FF"/>
<path d="M100.919 40.3801C100.943 40.55 100.953 40.6919 100.955 40.8139C100.979 42.2593 99.9655 43.3149 98.5281 43.3388C97.0827 43.3628 95.9411 42.2933 95.9171 40.8918C95.8931 39.4964 96.9927 38.3829 98.4221 38.3589C99.4817 38.3409 100.423 38.8247 100.773 39.7503L99.6476 40.0962C99.3617 39.5604 98.9039 39.4244 98.4401 39.4324C97.6644 39.4444 97.0847 40.0682 97.0967 40.8719C97.1106 41.6835 97.7244 42.2853 98.5221 42.2713C99.1478 42.2613 99.5976 41.9254 99.7676 41.3956L98.3082 41.4196L98.2922 40.424L100.917 40.3801H100.919Z" fill="#0073FF"/>
<path d="M105.371 43.1169L101.657 43.1789L101.577 38.4109L105.269 38.3489L105.285 39.3585L102.766 39.4004L102.78 40.2961L105.093 40.2581L105.109 41.2117L102.796 41.2497L102.812 42.1453L105.353 42.1033L105.369 43.1129L105.371 43.1169Z" fill="#0073FF"/>
<path d="M111.605 43.013L110.465 43.033L110.423 40.492L109.128 43.055L108.586 43.065L107.199 40.532L107.24 43.087L106.101 43.1069L106.021 38.3389L107.175 38.3189L108.826 41.3157L110.377 38.2649L111.523 38.2449L111.603 43.013H111.605Z" fill="#0073FF"/>
<path d="M116.145 42.937L112.43 42.999L112.35 38.2309L116.043 38.1689L116.059 39.1785L113.54 39.2205L113.554 40.1161L115.867 40.0782L115.883 41.0318L113.57 41.0698L113.586 41.9654L116.127 41.9234L116.143 42.933L116.145 42.937Z" fill="#0073FF"/>
<path d="M121.431 42.849L120.463 42.865L118.004 40.1442L118.05 42.905L116.877 42.925L116.797 38.157L117.772 38.141L120.231 40.9478L120.183 38.101L121.351 38.081L121.431 42.849Z" fill="#0073FF"/>
<path d="M124.641 39.0506L124.703 42.7931L123.536 42.8131L123.474 39.0706L121.931 39.0966L121.913 38.071L126.169 37.999L126.187 39.0246L124.643 39.0506H124.641Z" fill="#0073FF"/>
<path d="M78.9263 48.9925C78.7063 50.1881 77.7447 50.8858 76.5212 50.8858C75.1058 50.8858 73.9883 49.7962 73.9883 48.3948C73.9883 46.9934 75.1058 45.9038 76.5212 45.9038C77.6948 45.9038 78.6924 46.6015 78.9203 47.7331L77.7667 48.0029C77.6168 47.3132 77.133 46.9774 76.5212 46.9774C75.7675 46.9774 75.1618 47.5831 75.1618 48.3928C75.1618 49.2025 75.7675 49.8162 76.5212 49.8162C77.127 49.8162 77.6108 49.4743 77.7747 48.7626L78.9283 48.9905L78.9263 48.9925Z" fill="#0073FF"/>
<path d="M84.506 48.4008C84.506 49.7882 83.3885 50.8838 81.965 50.8838C80.5416 50.8838 79.4241 49.7882 79.4241 48.4008C79.4241 47.0133 80.5416 45.9018 81.965 45.9018C83.3885 45.9018 84.506 47.0053 84.506 48.4008ZM83.3325 48.4008C83.3325 47.5831 82.7407 46.9774 81.967 46.9774C81.1934 46.9774 80.6016 47.5831 80.6016 48.4008C80.6016 49.2184 81.1914 49.8102 81.967 49.8102C82.7427 49.8102 83.3325 49.2124 83.3325 48.4008Z" fill="#0073FF"/>
<path d="M89.7219 50.7778H88.7543L86.3412 48.0169V50.7778H85.1677V46.0097H86.1433L88.5563 48.8565V46.0097H89.7239V50.7778H89.7219Z" fill="#0073FF"/>
<path d="M94.396 47.2832L93.2425 47.5171C93.1565 47.0693 92.7866 46.8474 92.4088 46.8474C92.0309 46.8474 91.769 47.0613 91.769 47.3312C91.769 47.5231 91.855 47.6651 92.1529 47.7291L93.1425 47.949C93.9682 48.1349 94.452 48.5827 94.452 49.3364C94.452 50.354 93.5483 50.8798 92.4868 50.8798C91.4252 50.8798 90.5296 50.368 90.4016 49.4344L91.6111 49.2005C91.7331 49.6923 92.0729 49.9042 92.5507 49.9042C92.9926 49.9042 93.2544 49.7043 93.2544 49.4124C93.2544 49.1985 93.1545 49.0645 92.8126 48.9925L91.817 48.7786C91.1333 48.6227 90.5356 48.2668 90.5356 47.3972C90.5356 46.4716 91.3032 45.8958 92.4208 45.8958C93.4604 45.8958 94.2141 46.4076 94.392 47.2772L94.396 47.2832Z" fill="#0073FF"/>
<path d="M99.4139 48.6286C99.4139 49.9941 98.5663 50.8837 97.3008 50.8837C96.0353 50.8837 95.1377 49.9941 95.1377 48.6286V46.0097H96.3112V48.6286C96.3112 49.3543 96.7031 49.8022 97.3008 49.8022C97.8626 49.8022 98.2404 49.3543 98.2404 48.6286V46.0097H99.4139V48.6286Z" fill="#0073FF"/>
<path d="M103.748 50.7778H100.226V46.0097H101.399V49.7522H103.748V50.7778Z" fill="#0073FF"/>
<path d="M106.117 47.0353V50.7778H104.95V47.0353H103.406V46.0097H107.663V47.0353H106.119H106.117Z" fill="#0073FF"/>
<path d="M111.241 50.7778L110.907 49.9101H108.9L108.566 50.7778H107.307L109.3 46.0097H110.503L112.497 50.7778H111.245H111.241ZM109.904 47.3332L109.298 48.8985H110.515L109.904 47.3332Z" fill="#0073FF"/>
<path d="M117.461 50.7778H116.493L114.08 48.0169V50.7778H112.906V46.0097H113.882L116.295 48.8565V46.0097H117.463V50.7778H117.461Z" fill="#0073FF"/>
<path d="M120.735 47.0353V50.7778H119.568V47.0353H118.024V46.0097H122.281V47.0353H120.737H120.735Z" fill="#0073FF"/>
<path d="M126.535 47.2832L125.381 47.5171C125.295 47.0693 124.926 46.8474 124.548 46.8474C124.17 46.8474 123.908 47.0613 123.908 47.3312C123.908 47.5231 123.994 47.6651 124.292 47.7291L125.281 47.949C126.107 48.1349 126.591 48.5827 126.591 49.3364C126.591 50.354 125.687 50.8798 124.626 50.8798C123.564 50.8798 122.668 50.368 122.541 49.4344L123.75 49.2005C123.87 49.6923 124.212 49.9042 124.69 49.9042C125.131 49.9042 125.393 49.7043 125.393 49.4124C125.393 49.1985 125.293 49.0645 124.952 48.9925L123.956 48.7786C123.272 48.6227 122.674 48.2668 122.674 47.3972C122.674 46.4716 123.442 45.8958 124.56 45.8958C125.599 45.8958 126.353 46.4076 126.531 47.2772L126.535 47.2832Z" fill="#0073FF"/>
<path d="M93.9242 21.1379C93.8262 25.608 90.1717 29.2006 85.6775 29.2006C81.1834 29.2006 77.5289 25.608 77.4309 21.1379H72.0791C72.1791 28.5628 78.2286 34.5504 85.6755 34.5504C93.1225 34.5504 99.174 28.5628 99.274 21.1379H93.9222H93.9242Z" fill="#0073FF"/>
<path d="M99.234 19.9604H72.0891C72.423 15.4103 74.4341 6.88574 85.6656 6.88574V6.90573L97.0509 15.8661C98.3124 16.8577 99.1081 18.3311 99.232 19.9324V19.9604H99.234Z" fill="#0073FF"/>
<path d="M85.6677 6.89573L86.3874 13.1392C86.4494 13.669 86.6993 14.1388 87.0692 14.4786C87.529 14.9025 88.1667 15.0824 88.7884 15.0064C89.6081 14.9065 91.7992 14.6626 93.5245 14.6626C95.6896 14.6626 96.3314 15.3023 96.3314 15.3023C96.3354 15.3023 96.3374 15.2983 96.3354 15.2963C95.9895 15.0204 85.9836 7.13563 85.6757 6.89373C85.6737 6.89173 85.6697 6.89373 85.6697 6.89773L85.6677 6.89573Z" fill="#82BBFF"/>
</svg>
