<svg width="148" height="57" viewBox="0 0 148 57" fill="none" xmlns="http://www.w3.org/2000/svg">
<path d="M145.345 29.1497H137.962C137.213 29.1497 136.605 29.7571 136.605 30.5064V37.3617C136.605 38.111 137.213 38.7184 137.962 38.7184H145.345C146.094 38.7184 146.702 38.111 146.702 37.3617V30.5064C146.702 29.7571 146.094 29.1497 145.345 29.1497Z" fill="#FF2995"/>
<path d="M65.3398 29.7838C65.1071 29.7866 64.8908 29.7852 64.7057 29.7811C64.5016 29.7784 64.3383 29.7716 64.2363 29.7593C63.6076 29.6913 63.0048 29.5824 62.4251 29.4368C61.8781 29.2994 61.3556 29.1307 60.8535 28.9347C60.8535 28.9347 60.8526 28.9347 60.8508 28.9347C59.339 28.3455 58.0259 27.5155 56.9101 26.6079C56.3685 26.1112 55.9045 25.5411 55.5317 24.9151C55.1575 24.2906 54.8731 23.6129 54.6908 22.9013C54.4744 22.0603 54.3424 21.3323 54.2934 20.7799C54.2717 20.5159 54.6309 20.4138 54.752 20.6493C55.3113 21.7378 56.3209 23.4456 57.8531 25.092C58.6614 25.9615 59.6166 26.8147 60.7283 27.5468C61.5026 28.0598 62.3503 28.5129 63.281 28.8762C63.5627 28.9864 63.8512 29.0885 64.1465 29.181C64.1995 29.1974 64.4064 29.2205 64.6976 29.2477C64.9044 29.4328 65.1208 29.6124 65.3426 29.7866L65.3398 29.7838Z" fill="#FF2995"/>
<path d="M62.4265 29.4368C63.0048 29.5838 63.609 29.6927 64.2377 29.7593C64.3384 29.7702 64.503 29.777 64.7071 29.7811C64.2023 29.5022 63.7288 29.1974 63.2811 28.8735C62.1 28.0217 61.1094 27.0392 60.297 26.069C60.2426 26.0037 60.1881 25.9398 60.1364 25.8745C59.0029 24.4838 58.2273 23.1299 57.7674 22.2127C57.6463 21.9773 57.2871 22.0767 57.3075 22.3406C57.3633 23.0251 57.5442 23.9844 57.8545 25.0893C57.8858 25.205 57.9198 25.322 57.9552 25.439C58.2124 26.3085 58.7022 27.0923 59.3663 27.7101L59.8806 28.1877C60.1909 28.4435 60.5147 28.6925 60.8549 28.932C60.8549 28.932 60.8558 28.932 60.8576 28.932L62.4293 29.4341L62.4265 29.4368Z" fill="#FF2995"/>
<path d="M64.9493 29.43C64.7166 29.4328 64.5003 29.4314 64.3152 29.4273C64.1111 29.4246 63.9478 29.4178 63.8458 29.4055C63.2171 29.3375 62.6143 29.2287 62.0346 29.0831C62.0006 29.0545 61.9653 29.0259 61.9326 28.9987L60.4753 27.6121C60.4263 27.4706 60.38 27.3304 60.3351 27.1916C60.1664 26.6773 60.0221 26.182 59.9024 25.7152C59.8833 25.6472 59.867 25.5805 59.8507 25.5139C59.6112 24.5573 59.4724 23.7313 59.4289 23.1217C59.4112 22.8577 59.7718 22.7625 59.8888 22.9979C60.5773 24.4103 61.9925 26.8528 64.303 28.8912C64.5098 29.0763 64.7262 29.2559 64.948 29.43H64.9493Z" fill="#FF2995"/>
<path d="M77.8668 40.8697C77.8668 40.8697 77.6586 38.0353 74.2704 37.046C70.2862 35.8826 65.3413 36.8406 59.8167 33.4006C54.5112 30.0981 51.6782 23.7612 51.4142 20.6846C51.3897 20.4029 51.7734 20.2941 51.9027 20.5472C53.375 23.4374 57.8151 30.407 66.3727 30.324C66.7537 30.3199 67.6872 30.4737 68.1811 29.8872C69.5214 28.2965 61.8047 21.697 62.2034 20.6329C62.7396 19.2028 66.77 23.9776 71.187 27.1685C73.3682 28.7442 75.6542 30.4302 76.3292 31.3976C77.7253 33.402 78.0274 35.4921 78.0246 37.6788L77.8668 40.871V40.8697Z" fill="#FF2995"/>
<path d="M55.9821 26.0922C55.4446 25.5765 54.9561 25.0458 54.5193 24.5192L55.9821 26.0922Z" fill="#FF2995"/>
<path d="M91.6468 29.7838C91.8795 29.7866 92.0958 29.7852 92.2809 29.7811C92.485 29.7784 92.6483 29.7716 92.7503 29.7593C93.379 29.6913 93.9818 29.5824 94.5614 29.4368C95.1085 29.2994 95.631 29.1307 96.1331 28.9347C96.1331 28.9347 96.134 28.9347 96.1358 28.9347C97.6476 28.3455 98.9607 27.5155 100.076 26.6079C100.618 26.1112 101.082 25.5411 101.455 24.9151C101.829 24.2906 102.113 23.6129 102.296 22.9013C102.512 22.0603 102.644 21.3323 102.693 20.7799C102.715 20.5159 102.356 20.4138 102.235 20.6493C101.675 21.7378 100.666 23.4456 99.1335 25.092C98.3252 25.9615 97.37 26.8147 96.2583 27.5468C95.484 28.0598 94.6363 28.5129 93.7055 28.8762C93.4239 28.9864 93.1354 29.0885 92.8401 29.181C92.7871 29.1974 92.5802 29.2205 92.289 29.2477C92.0822 29.4328 91.8658 29.6124 91.644 29.7866L91.6468 29.7838Z" fill="#4ADFED"/>
<path d="M96.1332 28.9334C96.1332 28.9334 96.1346 28.9334 96.1359 28.9334C96.4761 28.6939 96.8 28.4449 97.1102 28.189L97.6246 27.7114C98.2886 27.0936 98.7785 26.3112 99.0356 25.4404C99.0696 25.322 99.105 25.205 99.1363 25.0907C99.4466 23.9844 99.6275 23.0251 99.6833 22.342C99.7037 22.078 99.3445 21.9787 99.2234 22.2141C98.7635 23.1312 97.9879 24.4851 96.8544 25.8758C96.8013 25.9411 96.7469 26.0051 96.6938 26.0704C95.8801 27.0419 94.8895 28.023 93.7097 28.8748C93.2621 29.1987 92.7872 29.5035 92.2837 29.7825C92.4878 29.7797 92.6511 29.7729 92.7531 29.7607C93.3818 29.6926 93.9846 29.5838 94.5643 29.4382L96.1359 28.9361L96.1332 28.9334Z" fill="#4ADFED"/>
<path d="M92.0374 29.43C92.27 29.4328 92.4864 29.4314 92.6715 29.4273C92.8756 29.4246 93.0388 29.4178 93.1409 29.4055C93.7696 29.3375 94.3724 29.2287 94.952 29.0831C94.9861 29.0545 95.0214 29.0259 95.0541 28.9987L96.5114 27.6121C96.5604 27.4706 96.6067 27.3304 96.6516 27.1916C96.8203 26.6773 96.9646 26.182 97.0843 25.7152C97.1033 25.6472 97.1197 25.5805 97.136 25.5139C97.3755 24.5573 97.5143 23.7313 97.5578 23.1217C97.5755 22.8577 97.2149 22.7625 97.0979 22.9979C96.4094 24.4103 94.9942 26.8528 92.6837 28.8912C92.4769 29.0763 92.2605 29.2559 92.0387 29.43H92.0374Z" fill="#4ADFED"/>
<path d="M79.1212 40.8697C79.1212 40.8697 79.3294 38.0353 82.7176 37.046C86.7019 35.8826 91.6468 36.8406 97.1713 33.4006C102.477 30.0981 105.31 23.7612 105.574 20.6846C105.598 20.4029 105.215 20.2941 105.085 20.5472C103.613 23.4374 99.1729 30.407 90.6153 30.324C90.2343 30.3199 89.3009 30.4737 88.8069 29.8872C87.4666 28.2965 95.1833 21.697 94.7846 20.6329C94.2485 19.2028 90.218 23.9776 85.8011 27.1685C83.6198 28.7442 81.3338 30.4302 80.6589 31.3976C79.2628 33.402 78.9607 35.4921 78.9634 37.6788L79.1212 40.871V40.8697Z" fill="#4ADFED"/>
<path d="M102.469 24.5192C102.032 25.0458 101.543 25.5778 101.006 26.0922L102.469 24.5192Z" fill="#4ADFED"/>
<path d="M109.539 19.8015H112.482C114.246 19.8015 115.285 20.6887 115.285 22.2794C115.285 23.8701 114.355 24.7138 112.646 24.7138H110.839V26.9209H109.54V19.8002L109.539 19.8015ZM112.569 23.7953C113.511 23.7953 114.053 23.319 114.053 22.3447C114.053 21.3705 113.48 20.8833 112.44 20.8833H110.839V23.7939H112.569V23.7953Z" fill="#FF2995"/>
<path d="M116.303 21.5773H117.516L117.472 23.1135H117.483C117.732 22.1501 118.284 21.4902 119.388 21.4902C120.546 21.4902 121.184 22.2481 121.184 23.5789C121.184 23.9136 121.151 24.3477 121.13 24.5749H120.026C120.048 24.3695 120.07 24.0987 120.07 23.8497C120.07 22.9516 119.724 22.5298 119.01 22.5298C118.09 22.5298 117.516 23.3095 117.516 24.5858V26.9236H116.303V21.5773Z" fill="#FF2995"/>
<path d="M122.059 24.2606C122.059 22.5502 123.152 21.4902 124.851 21.4902C126.551 21.4902 127.654 22.5502 127.654 24.2606C127.654 25.9711 126.562 27.0093 124.851 27.0093C123.141 27.0093 122.059 25.9602 122.059 24.2606ZM126.442 24.2606C126.442 23.168 125.836 22.4862 124.851 22.4862C123.866 22.4862 123.271 23.168 123.271 24.2606C123.271 25.3533 123.866 26.0132 124.851 26.0132C125.836 26.0132 126.442 25.3424 126.442 24.2606Z" fill="#FF2995"/>
<path d="M128.725 21.5773H129.938L129.916 22.821H129.927C130.143 22.01 130.858 21.4902 131.918 21.4902C133.443 21.4902 134.406 22.5393 134.406 24.1518C134.406 25.8826 133.432 27.0093 131.896 27.0093C130.836 27.0093 130.143 26.533 129.916 25.8404H129.905C129.916 26.1969 129.938 26.7494 129.938 26.9657V29.0654H128.725V21.5773ZM133.194 24.1858C133.194 23.1584 132.599 22.4862 131.636 22.4862C130.673 22.4862 129.958 23.168 129.936 24.2388V24.5205C129.936 25.4295 130.618 26.0132 131.656 26.0132C132.587 26.0132 133.193 25.2989 133.193 24.1844L133.194 24.1858Z" fill="#FF2995"/>
<path d="M140.521 24.4879H136.517C136.582 25.5152 137.155 26.0677 138.064 26.0677C138.842 26.0677 139.373 25.722 139.427 25.0934H140.52C140.476 26.284 139.502 27.0093 138.042 27.0093C136.353 27.0093 135.293 25.9711 135.293 24.2933C135.293 22.6155 136.353 21.4902 138.042 21.4902C139.557 21.4902 140.52 22.3883 140.52 24.0551V24.4879H140.521ZM139.429 23.6769C139.429 22.8768 138.931 22.4318 138.054 22.4318C137.178 22.4318 136.691 22.8645 136.551 23.7517H139.429V23.6755V23.6769Z" fill="#FF2995"/>
<path d="M141.571 21.5773H142.783L142.739 23.1135H142.75C142.999 22.1501 143.552 21.4902 144.655 21.4902C145.813 21.4902 146.451 22.2481 146.451 23.5789C146.451 23.9136 146.419 24.3477 146.397 24.5749H145.294C145.315 24.3695 145.337 24.0987 145.337 23.8497C145.337 22.9516 144.991 22.5298 144.277 22.5298C143.357 22.5298 142.783 23.3095 142.783 24.5858V26.9236H141.571V21.5773Z" fill="#FF2995"/>
<path d="M109.291 34.0361C109.291 31.7637 110.806 30.3567 112.949 30.3567C114.821 30.3567 116.152 31.4711 116.152 33.1163C116.152 33.1925 116.141 33.3326 116.13 33.4619H114.983C114.994 33.3639 114.994 33.2782 114.994 33.2237C114.994 32.1311 114.14 31.4385 112.992 31.4385C111.607 31.4385 110.611 32.444 110.611 34.0361C110.611 35.6282 111.649 36.612 112.992 36.612C114.183 36.612 115.016 35.9302 115.016 34.9029V34.7301H116.174V34.9791C116.174 36.5916 114.832 37.6951 112.949 37.6951C110.828 37.6951 109.291 36.299 109.291 34.0375V34.0361Z" fill="#FF2995"/>
<path d="M117.103 36.0486C117.103 35.2376 117.676 34.5981 119.105 34.5981H121.085V34.2198C121.085 33.4197 120.619 33.0618 119.678 33.0618C118.856 33.0618 118.39 33.3761 118.39 33.9708C118.39 34.0034 118.39 34.0905 118.401 34.1762H117.287C117.276 34.1 117.265 33.9599 117.265 33.8633C117.265 32.791 118.196 32.1528 119.721 32.1528C121.344 32.1528 122.297 32.9216 122.297 34.3273V37.5849H121.085C121.106 37.325 121.139 36.8378 121.139 36.4051H121.128C120.955 37.1957 120.317 37.672 119.137 37.672C117.958 37.672 117.103 37.0882 117.103 36.0486ZM121.086 35.4322V35.3342H119.214C118.521 35.3342 118.217 35.5723 118.217 35.9942C118.217 36.4813 118.65 36.763 119.386 36.763C120.435 36.763 121.085 36.2541 121.085 35.4322H121.086Z" fill="#FF2995"/>
<path d="M123.455 32.2399H124.667L124.624 33.7762H124.635C124.884 32.8128 125.435 32.1528 126.54 32.1528C127.698 32.1528 128.336 32.9108 128.336 34.2416C128.336 34.5763 128.303 35.0104 128.281 35.2376H127.178C127.2 35.0321 127.221 34.7613 127.221 34.5123C127.221 33.6143 126.876 33.1924 126.161 33.1924C125.241 33.1924 124.669 33.9721 124.669 35.2485V37.5862H123.456V32.2399H123.455Z" fill="#FF2995"/>
<path d="M134.439 35.1505H130.434C130.5 36.1779 131.072 36.7303 131.981 36.7303C132.76 36.7303 133.29 36.3847 133.345 35.756H134.437C134.394 36.9467 133.42 37.672 131.96 37.672C130.271 37.672 129.211 36.6337 129.211 34.9559C129.211 33.2782 130.271 32.1528 131.96 32.1528C133.474 32.1528 134.437 33.0509 134.437 34.7178V35.1505H134.439ZM133.346 34.3395C133.346 33.5394 132.848 33.0945 131.972 33.0945C131.096 33.0945 130.608 33.5272 130.468 34.4144H133.346V34.3382V34.3395Z" fill="#FF2995"/>
<path d="M141.904 37.3998C141.524 37.3998 141.209 37.325 140.956 37.1767C140.702 37.0284 140.526 36.8202 140.422 36.5548C140.32 36.2895 140.304 35.9752 140.375 35.6146L140.81 33.4279H141.719L141.283 35.5982C141.249 35.7738 141.241 35.9262 141.255 36.0554C141.269 36.1847 141.308 36.2936 141.369 36.3793C141.43 36.465 141.515 36.5276 141.624 36.5684C141.731 36.6093 141.858 36.6297 142.003 36.6297C142.186 36.6297 142.343 36.5943 142.477 36.5235C142.61 36.4528 142.722 36.3412 142.812 36.1888C142.901 36.0364 142.969 35.8391 143.018 35.5969L143.454 33.4265H144.341L143.9 35.6527C143.784 36.2296 143.56 36.6637 143.225 36.9576C142.89 37.2515 142.45 37.3985 141.903 37.3985L141.904 37.3998Z" fill="#EDEDED"/>
<path d="M138.701 33.5394L138.818 32.9312L141.116 30.4547H142.104L139.845 32.9312L139.388 32.8033H142.473L142.322 33.5394H138.701ZM140.637 34.3599L140.804 33.5394L140.988 32.8033L141.134 32.0726H141.976L141.519 34.3599H140.637Z" fill="#EDEDED"/>
<path d="M146.701 40.3199H109.572V41.3609H146.701V40.3199Z" fill="#FF2995"/>
</svg>
