<svg width="200" height="57" viewBox="0 0 200 57" fill="none" xmlns="http://www.w3.org/2000/svg">
<g clip-path="url(#clip0_666_1511)">
<path d="M77.7142 28.1763H70.4183V34.9705H67.5V18.4181H70.4183V25.258H77.7142V18.4181H80.6325V34.9705H77.7142V28.1763Z" fill="black"/>
<path d="M91.0415 35.1529C86.9604 35.1529 83.9965 33.101 83.1301 28.8831H86.2536C86.6184 31.0262 88.4652 32.2802 91.0415 32.2802C92.5007 32.2802 95.0542 31.8926 95.0542 30.2738C95.0542 29.2935 93.8458 28.7463 90.8591 28.2903C85.5696 27.4923 83.8825 26.1243 83.8825 23.2516C83.8825 20.6069 86.5044 18.2357 90.6995 18.2357C94.3474 18.2357 96.8782 20.1509 98.1777 24.0268H95.077C94.393 22.0432 92.9111 21.1084 90.6995 21.1084C88.4196 21.1084 86.778 22.066 86.778 23.2516C86.778 24.346 87.8724 24.916 91.4063 25.4403C96.217 26.2383 97.9042 27.5151 97.927 30.2738V30.3194C97.927 33.1922 94.9858 35.1529 91.0415 35.1529Z" fill="black"/>
<path d="M108.485 35.1757C103.675 35.1757 100.141 31.6418 100.141 26.7171C100.141 21.7924 103.675 18.2357 108.485 18.2357C112.498 18.2357 115.599 20.6753 116.556 24.3004H113.478C112.635 22.3624 110.811 21.1312 108.485 21.1312C105.202 21.1312 103.036 23.5708 103.036 26.7171C103.036 29.9546 105.293 32.303 108.485 32.303C111.153 32.303 113.205 30.6614 113.775 28.2219H116.739C116.1 32.3486 112.84 35.1757 108.485 35.1757Z" fill="black"/>
<path d="M131.297 21.268H125.962V34.9705H123.043V21.268H117.686V18.4181H131.297V21.268Z" fill="black"/>
<path d="M79.5132 40.4611H118.381C114.169 46.7044 107.039 50.8102 98.9472 50.8102C90.8556 50.8102 83.7208 46.7044 79.5132 40.4611Z" fill="#0A0A0A"/>
</g>
<defs>
<clipPath id="clip0_666_1511">
<rect width="63" height="44" fill="white" transform="translate(67.5 6.88574)"/>
</clipPath>
</defs>
</svg>
