<svg width="200" height="57" viewBox="0 0 200 57" fill="none" xmlns="http://www.w3.org/2000/svg">
<g clip-path="url(#clip0_665_1201)">
<path d="M83.7754 50.8534C84.5201 48.176 86.4921 46.7906 89.0217 46.2468C91.4948 45.725 94.0172 45.4726 96.5447 45.494C95.6823 45.7457 94.8129 45.9824 93.9585 46.2537C93.133 46.5146 92.3179 46.8102 91.5709 47.3724C96.2422 48.9149 100.485 47.1981 104.832 45.8461C103.694 47.7789 102.027 48.9981 99.983 49.7116C95.8809 51.1455 91.6806 51.0509 87.4342 50.544C86.6341 50.4493 85.8028 50.6144 84.9738 50.7553C84.699 50.8026 83.9567 50.9493 83.7754 50.8534Z" fill="#00A745"/>
<path d="M81.0691 31.5862C81.3993 35.4644 81.3531 39.4233 83.5525 42.7854C83.489 41.2498 83.7407 39.6577 83.6749 38.076C86.0198 41.9841 85.9124 47.571 83.0607 50.0117C81.7271 46.0147 80.2897 42.2566 79.2506 38.3923C78.6272 36.0659 79.5543 33.5363 81.0691 31.5862Z" fill="#00A745"/>
<path d="M87.4618 19.355H86.1133V18.7581H89.4245V19.355H88.0772V23.307H87.4618V19.355Z" fill="#00662A"/>
<path d="M92.5083 23.3093L91.3272 21.462H90.6991V23.3093H90.0837V18.7604H91.6285C92.0834 18.7604 92.4344 18.8958 92.6815 19.1668C92.8032 19.2924 92.899 19.4407 92.9634 19.6034C93.0278 19.766 93.0595 19.9398 93.0567 20.1147C93.0604 20.4209 92.9564 20.7187 92.7629 20.9561C92.5694 21.1935 92.2987 21.3554 91.998 21.4135L93.268 23.3093H92.5083ZM90.6991 19.3446V20.8836H91.5073C92.1227 20.8836 92.424 20.5453 92.424 20.1077C92.424 19.6702 92.1412 19.3446 91.6297 19.3446H90.6991Z" fill="#00662A"/>
<path d="M94.0291 23.3093V18.7604H96.8612V19.3446H94.6421V20.7058H96.6926V21.29H94.6421V22.724H96.8589V23.3093H94.0291Z" fill="#00662A"/>
<path d="M100.603 23.3093L100.141 22.1271H98.4092L97.9474 23.3093H97.2766L99.117 18.7604H99.4495L101.271 23.3093H100.603ZM99.2798 19.8306L98.6205 21.5486H99.9321L99.2798 19.8306Z" fill="#00662A"/>
<path d="M101.403 22.4468L101.859 22.0716C102.105 22.5576 102.506 22.7978 102.948 22.7978C103.465 22.7978 103.786 22.4965 103.786 22.1051C103.786 21.8591 103.626 21.6502 103.312 21.4712C103.232 21.4285 103.071 21.3558 102.844 21.2495C102.617 21.1433 102.45 21.059 102.332 20.9909C101.878 20.7023 101.65 20.3386 101.65 19.908C101.646 19.7438 101.677 19.5806 101.742 19.4297C101.806 19.2788 101.903 19.1438 102.025 19.034C102.297 18.7875 102.655 18.6587 103.022 18.676C103.283 18.6682 103.543 18.7262 103.776 18.8449C104.01 18.9635 104.21 19.1389 104.358 19.3549L103.945 19.7486C103.844 19.599 103.707 19.4764 103.547 19.3917C103.388 19.307 103.21 19.2626 103.029 19.2626C102.617 19.2626 102.308 19.5085 102.308 19.8779C102.308 20.1181 102.438 20.3086 102.696 20.4621C102.868 20.5617 103.044 20.6523 103.225 20.7335C103.502 20.8628 103.694 20.9644 103.802 21.0221C104.24 21.2876 104.461 21.6386 104.461 22.0808C104.467 22.2606 104.431 22.4392 104.356 22.6027C104.281 22.7661 104.17 22.91 104.03 23.0229C103.729 23.2705 103.349 23.3998 102.959 23.3866C102.637 23.3964 102.319 23.3129 102.043 23.1462C101.767 22.9795 101.545 22.7366 101.403 22.4468Z" fill="#00662A"/>
<path d="M105.232 18.7604H105.848V21.6641C105.848 22.3845 106.223 22.7851 106.882 22.7851C107.54 22.7851 107.91 22.3718 107.91 21.6641V18.7604H108.531V21.7795C108.531 22.2783 108.378 22.672 108.077 22.9618C107.775 23.2516 107.375 23.3924 106.882 23.3924C106.389 23.3924 105.989 23.2504 105.688 22.9618C105.386 22.6732 105.232 22.2783 105.232 21.7795V18.7604Z" fill="#00662A"/>
<path d="M112.053 23.3093L110.87 21.462H110.242V23.3093H109.627V18.7604H111.172C111.628 18.7604 111.979 18.8958 112.225 19.1668C112.346 19.2924 112.442 19.4407 112.507 19.6034C112.571 19.766 112.603 19.9398 112.6 20.1147C112.604 20.4209 112.5 20.7187 112.306 20.9561C112.113 21.1935 111.842 21.3554 111.541 21.4135L112.811 23.3093H112.053ZM110.242 19.3446V20.8836H111.051C111.666 20.8836 111.967 20.5453 111.967 20.1077C111.967 19.6702 111.684 19.3446 111.174 19.3446H110.242Z" fill="#00662A"/>
<path d="M113.577 23.3093V18.7604H116.409V19.3446H114.189V20.7058H116.238V21.29H114.189V22.724H116.404V23.3093H113.577Z" fill="#00662A"/>
<path d="M87.7737 41.617C86.9297 40.7961 86.5129 39.7432 86.5129 38.4593C86.5129 37.1755 86.9413 36.096 87.7968 35.2681C88.2077 34.858 88.697 34.535 89.2356 34.3183C89.7742 34.1017 90.351 33.9959 90.9314 34.0074C92.4693 34.0074 93.857 34.7243 94.6087 35.7992L93.5338 36.8291C92.841 35.962 91.9948 35.5337 91.0007 35.5337C90.6226 35.5262 90.2469 35.5962 89.8968 35.7393C89.5468 35.8825 89.2297 36.0958 88.9652 36.3661C88.6944 36.6417 88.4821 36.9692 88.3411 37.3289C88.2 37.6886 88.1331 38.0731 88.1443 38.4593C88.1443 39.2814 88.4099 39.9602 88.9525 40.5063C89.2188 40.7726 89.5368 40.9817 89.8868 41.1206C90.2368 41.2596 90.6115 41.3256 90.988 41.3145C92.0398 41.3145 92.8965 40.8862 93.5673 40.0191L94.6652 41.0132C93.8674 42.0892 92.4797 42.8293 90.9072 42.8293C89.6706 42.8316 88.6177 42.4264 87.7737 41.617Z" fill="#00662A"/>
<path d="M100.936 42.7046L100.23 40.7615H97.2006L96.4894 42.7046H94.8176L98.1254 34.1609H99.34L102.613 42.7046H100.936ZM98.7269 36.4123L97.6624 39.3391H99.7787L98.7269 36.4123Z" fill="#00662A"/>
<path d="M108.233 42.7046L106.325 39.5008H105.273V42.7046H103.699V34.1609H106.88C107.804 34.1609 108.512 34.415 109.008 34.9357C109.252 35.1866 109.443 35.4837 109.57 35.8094C109.697 36.1351 109.758 36.483 109.749 36.8326C109.749 37.9433 109.148 38.9373 107.956 39.3195L110.113 42.7046H108.233ZM105.273 35.6261V38.0783H106.707C107.667 38.0783 108.129 37.5346 108.129 36.8407C108.129 36.1468 107.668 35.6261 106.88 35.6261H105.273Z" fill="#00662A"/>
<path d="M111.414 42.7046V34.1609H117.094V35.6342H113V37.6465H116.781V39.1151H113V41.2199H117.094V42.7012L111.414 42.7046Z" fill="#00662A"/>
<path d="M91.9611 25.2189H93.4435L90.4971 32.3321H89.4961L86.522 25.2189H88.0333L90.0064 30.262L91.9611 25.2189Z" fill="#00662A"/>
<path d="M94.3291 25.2189H95.6476V32.3321H94.3291V25.2189Z" fill="#00662A"/>
<path d="M101.963 25.2189H103.262V32.3321H102.405L98.5838 27.8074V32.3321H97.2849V25.2189H98.0735L101.963 29.7806V25.2189Z" fill="#00662A"/>
<path d="M105.534 31.427C104.832 30.7435 104.486 29.8672 104.486 28.7992C104.486 27.7312 104.841 26.8365 105.554 26.1437C105.896 25.8025 106.303 25.5337 106.751 25.3534C107.199 25.1731 107.679 25.0849 108.162 25.0942C109.442 25.0942 110.598 25.6911 111.224 26.5859L110.328 27.4368C109.751 26.7152 109.049 26.3596 108.22 26.3596C107.905 26.3536 107.593 26.4119 107.301 26.531C107.01 26.6502 106.746 26.8276 106.526 27.0524C106.3 27.2822 106.122 27.5554 106.005 27.8557C105.887 28.1559 105.831 28.4769 105.841 28.7992C105.832 29.1131 105.887 29.4257 106.002 29.7177C106.118 30.0098 106.292 30.2752 106.513 30.4977C106.735 30.7202 107 30.8952 107.291 31.0119C107.583 31.1286 107.895 31.1846 108.209 31.1764C109.086 31.1764 109.798 30.8208 110.356 30.0992L111.27 30.927C110.606 31.8218 109.452 32.4383 108.142 32.4383C107.111 32.4383 106.237 32.1012 105.534 31.427Z" fill="#00662A"/>
<path d="M112.293 32.3321V25.2189H117.018V26.4508H113.611V28.1296H116.759V29.3522H113.611V31.1048H117.018V32.3321H112.293Z" fill="#00662A"/>
<path d="M82.9661 17.5296C87.179 15.1881 90.854 12.012 94.0359 8.66146C95.8947 6.70565 96.8657 6.08566 99.4034 8.24467C104.268 12.3826 111.795 14.9226 111.795 14.9226L111.824 12.7913C111.826 12.6928 111.847 12.5956 111.886 12.5054C111.926 12.4152 111.983 12.3337 112.054 12.2659C112.126 12.198 112.21 12.1451 112.302 12.1102C112.394 12.0754 112.492 12.0592 112.591 12.0628L114.163 12.124C114.355 12.1312 114.537 12.2132 114.67 12.3525C114.803 12.4918 114.876 12.6775 114.873 12.8698L114.847 15.1223C114.845 15.3099 114.896 15.4942 114.995 15.6535C115.094 15.8129 115.236 15.9406 115.406 16.0217C116.445 16.5263 118.365 17.2086 119.942 17.4684C107.013 18.0318 96.7203 9.33572 96.7203 9.33572C96.7203 9.33572 92.2256 15.6188 82.9661 17.5296Z" fill="#00A745"/>
</g>
<defs>
<clipPath id="clip0_665_1201">
<rect width="40.8885" height="44" fill="white" transform="translate(79.0557 6.88574)"/>
</clipPath>
</defs>
</svg>
