<svg width="200" height="57" viewBox="0 0 200 57" fill="none" xmlns="http://www.w3.org/2000/svg">
<path d="M92.7489 38.1716C91.6237 40.1863 90.2156 41.1435 87.8033 41.248L87.7869 41.2665L75.3461 41.3054C74.9669 41.3054 74.641 41.0369 74.5714 40.6639L73.9298 37.2309C73.8376 36.741 74.2188 36.2901 74.7189 36.3004C77.3895 36.3598 84.7454 36.5197 85.8255 36.5197C89.3138 36.5197 89.3692 33.0477 86.3461 32.4616C86.3276 32.4575 86.3092 32.4534 86.2928 32.4472C83.5669 31.611 79.9453 31.6458 77.4879 30.0902C74.9034 28.6043 73.9749 24.7839 75.4691 22.265C77.3034 19.2603 81.093 18.4795 84.5261 18.4692C88.6641 18.3544 93.9007 20.3753 93.7696 24.9233C93.7573 25.3455 93.4027 25.6775 92.9805 25.6755L89.2974 25.657C88.8957 25.655 88.578 25.3496 88.5206 24.952C87.996 21.3325 77.9162 22.1133 80.5274 25.8681C80.6421 26.0341 80.7959 26.1735 80.9721 26.2719C84.0608 27.9894 87.2889 27.3807 90.3939 28.9958C93.6466 30.3444 94.2922 35.3043 92.7489 38.1716Z" fill="#E3A20B"/>
<path d="M67.904 41.258L62.2554 41.2416L55.0471 20.6559C54.8647 20.1353 55.2336 19.5839 55.7849 19.5573L59.6074 19.3646C59.9742 19.3462 60.3083 19.5716 60.4292 19.918L67.9019 41.2601L67.904 41.258Z" fill="#004799"/>
<path d="M78.7934 41.2889L74.7988 41.2787C73.8068 41.2766 72.9255 40.6474 72.5976 39.7128L65.6045 19.746C65.4877 19.4099 65.7254 19.0553 66.08 19.0369L70.5111 18.8135C70.7468 18.8012 70.9641 18.9467 71.042 19.1701L78.7934 41.291V41.2889Z" fill="#004799"/>
<path d="M105.417 23.3345H104.136L102.538 17.6244H103.72L104.813 21.8588L106.003 17.6244H106.967L108.166 21.8588L109.258 17.6244H110.441L108.842 23.3345H107.561L106.485 19.5653L105.417 23.3345Z" fill="#004799"/>
<path d="M113.769 19.7352V19.2536H114.821V23.3322H113.769V22.8506C113.453 23.2482 113.011 23.447 112.439 23.447C111.867 23.447 111.429 23.24 111.037 22.826C110.652 22.4079 110.457 21.8955 110.457 21.2929C110.457 20.6903 110.65 20.1861 111.037 19.768C111.429 19.3499 111.896 19.1409 112.439 19.1409C113.011 19.1409 113.453 19.3397 113.769 19.7373V19.7352ZM111.828 22.125C112.039 22.3382 112.31 22.4427 112.636 22.4427C112.962 22.4427 113.232 22.3361 113.443 22.125C113.66 21.9078 113.769 21.6311 113.769 21.2929C113.769 20.9547 113.66 20.6821 113.443 20.469C113.232 20.2517 112.962 20.1431 112.636 20.1431C112.31 20.1431 112.039 20.2517 111.828 20.469C111.615 20.6821 111.51 20.9568 111.51 21.2929C111.51 21.629 111.617 21.9078 111.828 22.125Z" fill="#004799"/>
<path d="M117.999 19.1409C118.45 19.1409 118.817 19.2905 119.1 19.5897C119.393 19.8951 119.541 20.3071 119.541 20.8297V23.3343H118.489V20.9609C118.489 20.6944 118.417 20.4874 118.274 20.3419C118.131 20.1943 117.932 20.1226 117.682 20.1226C117.405 20.1226 117.186 20.2087 117.026 20.3788C116.866 20.551 116.786 20.801 116.786 21.133V23.3363H115.735V19.2577H116.786V19.7147C117.036 19.3335 117.442 19.1429 118.001 19.1429L117.999 19.1409Z" fill="#004799"/>
<path d="M123.494 19.7352V19.2536H124.546V23.3322H123.494V22.8506C123.179 23.2482 122.736 23.447 122.164 23.447C121.592 23.447 121.154 23.24 120.762 22.826C120.377 22.4079 120.182 21.8955 120.182 21.2929C120.182 20.6903 120.375 20.1861 120.762 19.768C121.154 19.3499 121.621 19.1409 122.164 19.1409C122.736 19.1409 123.179 19.3397 123.494 19.7373V19.7352ZM121.553 22.125C121.764 22.3382 122.035 22.4427 122.361 22.4427C122.687 22.4427 122.957 22.3361 123.168 22.125C123.386 21.9078 123.494 21.6311 123.494 21.2929C123.494 20.9547 123.386 20.6821 123.168 20.469C122.957 20.2517 122.687 20.1431 122.361 20.1431C122.035 20.1431 121.764 20.2517 121.553 20.469C121.34 20.6821 121.236 20.9568 121.236 21.2929C121.236 21.629 121.342 21.9078 121.553 22.125Z" fill="#004799"/>
<path d="M106.194 28.5382V26.2714H107.311V31.9815H106.194V29.6163H104.073V31.9815H102.948V26.2714H104.073V28.5382H106.194Z" fill="#004799"/>
<path d="M112.269 30.3749H109.194C109.33 30.8852 109.713 31.1414 110.344 31.1414C110.746 31.1414 111.051 31.0062 111.258 30.7336L112.107 31.2234C111.705 31.8055 111.111 32.0965 110.328 32.0965C109.654 32.0965 109.112 31.8916 108.705 31.4837C108.297 31.0759 108.092 30.5614 108.092 29.9424C108.092 29.3235 108.293 28.8213 108.696 28.4094C109.094 27.9954 109.611 27.7904 110.246 27.7904C110.881 27.7904 111.342 27.9974 111.722 28.4094C112.113 28.8234 112.31 29.3337 112.31 29.9424C112.31 30.0572 112.295 30.2007 112.269 30.3749ZM109.178 29.5592H111.258C111.199 29.2927 111.078 29.0898 110.896 28.9464C110.713 28.8049 110.498 28.7353 110.248 28.7353C109.965 28.7353 109.731 28.807 109.547 28.9505C109.363 29.0939 109.24 29.2968 109.18 29.5571L109.178 29.5592Z" fill="#004799"/>
<path d="M116.099 28.3848V27.9031H117.151V31.9818H116.099V31.5001C115.784 31.8977 115.341 32.0965 114.769 32.0965C114.197 32.0965 113.759 31.8895 113.367 31.4755C112.982 31.0574 112.787 30.545 112.787 29.9424C112.787 29.3399 112.98 28.8357 113.367 28.4176C113.759 27.9995 114.226 27.7904 114.769 27.7904C115.341 27.7904 115.784 27.9892 116.099 28.3868V28.3848ZM114.159 30.7746C114.37 30.9877 114.64 31.0922 114.966 31.0922C115.292 31.0922 115.562 30.9857 115.774 30.7746C115.991 30.5573 116.099 30.2806 116.099 29.9424C116.099 29.6043 115.991 29.3317 115.774 29.1185C115.562 28.9013 115.292 28.7926 114.966 28.7926C114.64 28.7926 114.37 28.9013 114.159 29.1185C113.945 29.3317 113.841 29.6063 113.841 29.9424C113.841 30.2786 113.947 30.5573 114.159 30.7746Z" fill="#004799"/>
<path d="M119.11 31.9817H118.059V26.0277H119.11V31.9817Z" fill="#004799"/>
<path d="M122.369 27.9028V28.9132H121.447V30.6103C121.447 30.7517 121.482 30.8542 121.553 30.9197C121.625 30.9853 121.728 31.0222 121.863 31.0304C121.998 31.0386 122.168 31.0366 122.369 31.0263V31.9814C121.656 32.0634 121.15 31.9958 120.848 31.7826C120.547 31.5695 120.395 31.178 120.395 30.6123V28.9153H119.686V27.9048H120.395V27.0809L121.447 26.7632V27.9048H122.369V27.9028Z" fill="#004799"/>
<path d="M125.429 27.7882C125.88 27.7882 126.247 27.9379 126.53 28.2371C126.823 28.5425 126.97 28.9544 126.97 29.4771V31.9816H125.919V29.6083C125.919 29.3418 125.847 29.1348 125.704 28.9893C125.56 28.8417 125.361 28.77 125.111 28.77C124.835 28.77 124.615 28.8561 124.456 29.0262C124.296 29.1983 124.216 29.4484 124.216 29.7804V31.9837H123.164V26.2736H124.216V28.3621C124.466 27.9809 124.872 27.7903 125.431 27.7903L125.429 27.7882Z" fill="#004799"/>
<path d="M129.766 32.0965C129.151 32.0965 128.637 31.8895 128.225 31.4755C127.817 31.0615 127.612 30.5512 127.612 29.9424C127.612 29.3337 127.817 28.8213 128.225 28.4094C128.639 27.9954 129.151 27.7904 129.766 27.7904C130.164 27.7904 130.524 27.8847 130.85 28.0753C131.176 28.2659 131.424 28.5221 131.592 28.8418L130.686 29.3727C130.604 29.2046 130.481 29.0714 130.315 28.973C130.149 28.8746 129.963 28.8254 129.756 28.8254C129.44 28.8254 129.18 28.93 128.973 29.139C128.766 29.3481 128.663 29.6166 128.663 29.9424C128.663 30.2683 128.766 30.5245 128.973 30.7418C129.18 30.9488 129.44 31.0513 129.756 31.0513C129.969 31.0513 130.157 31.0041 130.323 30.9078C130.489 30.8135 130.612 30.6803 130.694 30.5122L131.608 31.0349C131.428 31.3607 131.174 31.619 130.846 31.8096C130.518 32.0002 130.157 32.0945 129.766 32.0945V32.0965Z" fill="#004799"/>
<path d="M135.203 28.3848V27.9031H136.255V31.9818H135.203V31.5001C134.888 31.8977 134.445 32.0965 133.873 32.0965C133.301 32.0965 132.863 31.8895 132.471 31.4755C132.086 31.0574 131.891 30.545 131.891 29.9424C131.891 29.3399 132.084 28.8357 132.471 28.4176C132.863 27.9995 133.33 27.7904 133.873 27.7904C134.445 27.7904 134.888 27.9892 135.203 28.3868V28.3848ZM133.263 30.7746C133.474 30.9877 133.744 31.0922 134.07 31.0922C134.396 31.0922 134.666 30.9857 134.878 30.7746C135.095 30.5573 135.203 30.2806 135.203 29.9424C135.203 29.6043 135.095 29.3317 134.878 29.1185C134.666 28.9013 134.396 28.7926 134.07 28.7926C133.744 28.7926 133.474 28.9013 133.263 29.1185C133.049 29.3317 132.945 29.6063 132.945 29.9424C132.945 30.2786 133.051 30.5573 133.263 30.7746Z" fill="#004799"/>
<path d="M138.216 27.903V28.604C138.308 28.3478 138.466 28.1551 138.69 28.0198C138.913 27.8866 139.167 27.821 139.456 27.821V28.9954C139.134 28.9524 138.847 29.018 138.591 29.1922C138.341 29.3603 138.216 29.641 138.216 30.0325V31.9816H137.165V27.903H138.216Z" fill="#004799"/>
<path d="M143.959 30.3749H140.885C141.02 30.8852 141.403 31.1414 142.035 31.1414C142.436 31.1414 142.742 31.0062 142.949 30.7336L143.797 31.2234C143.396 31.8055 142.801 32.0965 142.018 32.0965C141.344 32.0965 140.803 31.8916 140.395 31.4837C139.987 31.0759 139.782 30.5614 139.782 29.9424C139.782 29.3235 139.983 28.8213 140.387 28.4094C140.784 27.9954 141.301 27.7904 141.936 27.7904C142.572 27.7904 143.033 27.9974 143.412 28.4094C143.803 28.8234 144 29.3337 144 29.9424C144 30.0572 143.986 30.2007 143.959 30.3749ZM140.868 29.5592H142.949C142.889 29.2927 142.768 29.0898 142.586 28.9464C142.404 28.8049 142.188 28.7353 141.938 28.7353C141.656 28.7353 141.422 28.807 141.237 28.9505C141.053 29.0939 140.93 29.2968 140.871 29.5571L140.868 29.5592Z" fill="#004799"/>
<path d="M104.897 40.5279C104.337 40.5279 103.864 40.4029 103.478 40.1529C103.093 39.9028 102.818 39.5564 102.654 39.1178L103.618 38.5542C103.841 39.1363 104.278 39.4273 104.931 39.4273C105.237 39.4273 105.464 39.372 105.616 39.2634C105.768 39.1547 105.843 39.0072 105.843 38.8227C105.843 38.6219 105.753 38.4661 105.575 38.3575C105.395 38.2427 105.075 38.1218 104.612 37.9906C104.112 37.8389 103.716 37.6606 103.429 37.4598C103.07 37.1933 102.89 36.8018 102.89 36.2854C102.89 35.7689 103.072 35.3528 103.437 35.0536C103.802 34.7441 104.245 34.5883 104.767 34.5883C105.224 34.5883 105.63 34.699 105.983 34.9224C106.335 35.1458 106.61 35.4614 106.807 35.8693L105.86 36.4165C105.63 35.9267 105.267 35.6828 104.767 35.6828C104.54 35.6828 104.357 35.7361 104.22 35.8426C104.085 35.9492 104.015 36.0865 104.015 36.2546C104.015 36.435 104.089 36.5805 104.234 36.6953C104.398 36.81 104.685 36.9289 105.099 37.0539L105.491 37.1851C105.561 37.2077 105.684 37.2527 105.858 37.3245C106.022 37.3839 106.141 37.4413 106.216 37.4966C106.483 37.6606 106.661 37.8287 106.755 38.0029C106.897 38.2304 106.967 38.5009 106.967 38.8104C106.967 39.3371 106.774 39.7573 106.387 40.0668C106.001 40.3763 105.503 40.532 104.894 40.532L104.897 40.5279Z" fill="#004799"/>
<path d="M111.593 38.8062H108.518C108.653 39.3165 109.037 39.5727 109.668 39.5727C110.07 39.5727 110.375 39.4374 110.582 39.1648L111.431 39.6547C111.029 40.2368 110.435 40.5278 109.652 40.5278C108.977 40.5278 108.436 40.3228 108.028 39.915C107.62 39.5071 107.416 38.9927 107.416 38.3737C107.416 37.7547 107.616 37.2526 108.02 36.8406C108.418 36.4266 108.934 36.2217 109.57 36.2217C110.205 36.2217 110.666 36.4287 111.045 36.8406C111.437 37.2547 111.634 37.765 111.634 38.3737C111.634 38.4885 111.619 38.632 111.593 38.8062ZM108.502 37.9904H110.582C110.523 37.724 110.402 37.5211 110.219 37.3776C110.037 37.2362 109.822 37.1665 109.572 37.1665C109.289 37.1665 109.055 37.2383 108.871 37.3817C108.686 37.5252 108.563 37.7281 108.504 37.9884L108.502 37.9904Z" fill="#004799"/>
<path d="M113.38 36.3345V37.0354C113.472 36.7792 113.63 36.5866 113.853 36.4513C114.076 36.3181 114.331 36.2525 114.62 36.2525V37.4269C114.298 37.3839 114.011 37.4494 113.755 37.6237C113.505 37.7917 113.38 38.0725 113.38 38.464V40.4131H112.328V36.3345H113.38Z" fill="#004799"/>
<path d="M117.048 39.1895L118.044 36.3345H119.202L117.653 40.4131H116.454L114.905 36.3345H116.063L117.05 39.1895H117.048Z" fill="#004799"/>
<path d="M120.178 35.8469C120.004 35.8469 119.852 35.7834 119.725 35.6563C119.598 35.5292 119.532 35.3776 119.532 35.2034C119.532 35.0292 119.596 34.8775 119.725 34.7463C119.852 34.6151 120.004 34.5496 120.178 34.5496C120.352 34.5496 120.51 34.6151 120.639 34.7463C120.766 34.8775 120.83 35.0292 120.83 35.2034C120.83 35.3776 120.766 35.5272 120.639 35.6563C120.512 35.7834 120.358 35.8469 120.178 35.8469ZM120.709 40.4154H119.657V36.3368H120.709V40.4154Z" fill="#004799"/>
<path d="M123.535 40.5278C122.92 40.5278 122.406 40.3208 121.994 39.9068C121.586 39.4928 121.381 38.9824 121.381 38.3737C121.381 37.765 121.586 37.2526 121.994 36.8406C122.408 36.4266 122.92 36.2217 123.535 36.2217C123.933 36.2217 124.294 36.316 124.619 36.5066C124.945 36.6972 125.193 36.9534 125.361 37.2731L124.455 37.8039C124.373 37.6359 124.25 37.5027 124.084 37.4043C123.918 37.3059 123.732 37.2567 123.525 37.2567C123.209 37.2567 122.949 37.3612 122.742 37.5703C122.535 37.7793 122.433 38.0478 122.433 38.3737C122.433 38.6996 122.535 38.9558 122.742 39.173C122.949 39.38 123.209 39.4825 123.525 39.4825C123.738 39.4825 123.927 39.4354 124.093 39.3391C124.259 39.2448 124.382 39.1116 124.464 38.9435L125.378 39.4661C125.197 39.792 124.943 40.0503 124.615 40.2409C124.287 40.4315 123.927 40.5258 123.535 40.5258V40.5278Z" fill="#004799"/>
<path d="M129.836 38.8062H126.761C126.897 39.3165 127.28 39.5727 127.911 39.5727C128.313 39.5727 128.618 39.4374 128.825 39.1648L129.674 39.6547C129.272 40.2368 128.678 40.5278 127.895 40.5278C127.22 40.5278 126.679 40.3228 126.272 39.915C125.864 39.5071 125.659 38.9927 125.659 38.3737C125.659 37.7547 125.86 37.2526 126.263 36.8406C126.661 36.4266 127.177 36.2217 127.813 36.2217C128.448 36.2217 128.909 36.4287 129.288 36.8406C129.68 37.2547 129.877 37.765 129.877 38.3737C129.877 38.4885 129.862 38.632 129.836 38.8062ZM126.745 37.9904H128.825C128.766 37.724 128.645 37.5211 128.462 37.3776C128.28 37.2362 128.065 37.1665 127.815 37.1665C127.532 37.1665 127.298 37.2383 127.114 37.3817C126.929 37.5252 126.806 37.7281 126.747 37.9884L126.745 37.9904Z" fill="#004799"/>
<path d="M131.485 37.4945C131.485 37.6687 131.733 37.8183 132.227 37.9433C132.402 37.9822 132.559 38.0273 132.701 38.0786C132.842 38.1298 132.986 38.2036 133.129 38.2979C133.273 38.3922 133.385 38.5192 133.467 38.677C133.549 38.8349 133.59 39.0173 133.59 39.2243C133.59 39.6424 133.433 39.9662 133.117 40.1958C132.801 40.4192 132.412 40.5299 131.951 40.5299C131.112 40.5299 130.543 40.206 130.237 39.5584L131.151 39.0439C131.276 39.3985 131.543 39.5748 131.951 39.5748C132.326 39.5748 132.514 39.4579 132.514 39.2243C132.514 39.0501 132.266 38.9005 131.772 38.7754C131.588 38.7262 131.43 38.677 131.299 38.6279C131.168 38.5787 131.026 38.5069 130.875 38.4127C130.723 38.3184 130.606 38.1954 130.528 38.0458C130.448 37.8962 130.409 37.722 130.409 37.519C130.409 37.1173 130.557 36.8017 130.85 36.5722C131.149 36.3385 131.518 36.2217 131.959 36.2217C132.291 36.2217 132.592 36.2975 132.865 36.4451C133.137 36.5947 133.351 36.8079 133.508 37.0845L132.611 37.5744C132.48 37.2977 132.262 37.1583 131.959 37.1583C131.824 37.1583 131.711 37.1891 131.621 37.2526C131.531 37.3161 131.485 37.3961 131.485 37.4924V37.4945Z" fill="#004799"/>
<path d="M98.426 6.97699V50.7945" stroke="#004799" stroke-width="0.282839" stroke-miterlimit="10"/>
</svg>
