<svg width="120" height="49" viewBox="0 0 120 49" fill="none" xmlns="http://www.w3.org/2000/svg">
<path d="M39.8036 21.3425C39.8036 19.2953 37.8185 17.1236 34.3769 17.1236C30.5105 17.1236 26.2697 19.9541 25.6133 25.6101C24.9508 31.3284 28.5109 33.8552 32.0881 33.8552C35.664 33.8552 37.5465 32.4618 39.4583 30.594C37.8076 28.515 35.6786 29.4825 35.276 29.6851C34.8307 29.9083 34.2463 30.217 33.0592 30.217C31.6732 30.217 30.2677 29.5899 30.2677 27.0168C39.1276 26.1677 39.8036 23.3909 39.8036 21.3425ZM35.4127 21.6853C35.3553 22.3161 35.0966 23.408 30.6131 24.0083C31.5586 20.6507 33.3618 20.4018 34.195 20.4018C34.9759 20.4018 35.4736 21.0069 35.4127 21.6853ZM20.4062 22.2306C20.4062 22.2306 18.5006 28.2064 18.3529 28.7079C18.3017 28.2064 16.9072 17.4726 16.9072 17.4726C13.6618 17.4726 11.9257 19.7784 11.0107 22.2282C11.0107 22.2282 8.69265 28.221 8.50478 28.7225C8.49382 28.2528 8.14853 22.2905 8.14853 22.2905C7.9521 19.294 5.2168 17.4798 3 17.4798L5.66578 33.7417C9.07088 33.7307 10.8936 31.4285 11.855 28.9836C11.855 28.9836 13.8937 23.6959 13.9779 23.4556C13.9986 23.685 15.4444 33.7417 15.4444 33.7417C18.8519 33.7417 20.6905 31.5859 21.68 29.2288L26.4613 17.4798C23.094 17.4798 21.3212 19.7796 20.4062 22.2306ZM52.3186 17.1016C50.2239 17.1016 48.6097 18.24 47.2507 19.9224L47.2531 19.9101L48.461 10.1389C45.6719 10.1389 43.3929 12.5668 42.9598 16.1683L40.8382 33.6148C42.4474 33.6148 44.1517 33.1476 45.0716 31.9653C45.8952 33.0231 47.1189 33.8661 48.9306 33.8661C53.6339 33.8661 56.867 28.3992 56.867 23.2665C56.867 18.5828 54.5879 17.1016 52.3186 17.1016ZM51.8868 25.4833C51.3988 28.3528 49.8042 30.2877 48.2596 30.2877C46.7029 30.2877 46.0453 29.5997 46.0453 29.5997C46.3356 27.0913 46.5284 25.5528 47.0957 24.2279C47.6618 22.9029 49.0002 20.7886 50.4007 20.7886C51.7623 20.7886 52.3748 22.615 51.8868 25.4833ZM68.6574 17.4811H65.3645L65.3803 17.3091C65.6048 15.1593 66.1197 14.0308 67.7863 13.8576C68.9245 13.7405 69.4394 13.1487 69.559 12.5094C69.6529 12.008 69.9713 10.2353 69.9713 10.2353C63.3661 10.1975 61.2957 13.0487 60.7674 17.3823L60.7552 17.4798L60.6905 17.4823C59.6181 17.4823 58.4408 18.6963 58.2346 20.2383L58.1627 20.8056H60.3587L58.5152 36.0671L57.9565 38.8097L58.1833 38.817C61.2664 38.6999 63.2502 36.2684 63.6882 32.7279L65.1278 20.8056H66.16C67.1702 20.8056 68.3573 19.7931 68.5769 18.1008L68.6574 17.4811ZM85.7453 17.1981C81.951 17.1981 78.375 19.9907 77.2755 24.384C76.1775 28.7762 77.847 33.9625 83.4232 33.9625C89.0017 33.9625 92.2065 28.5565 92.2065 24.0681C92.2065 19.5771 89.1713 17.1981 85.7453 17.1981ZM87.2835 25.3527C87.087 27.345 86.2087 30.3549 83.808 30.3549C81.3968 30.3549 81.7395 26.8229 81.9727 25.1466C82.2233 23.3494 83.2327 20.8056 85.3815 20.8056C87.3225 20.8056 87.5055 23.103 87.2835 25.3527ZM110.944 22.2306C110.944 22.2306 109.038 28.2064 108.892 28.7079C108.839 28.2064 107.445 17.4726 107.445 17.4726C104.2 17.4726 102.464 19.7784 101.548 22.2282C101.548 22.2282 99.2318 28.221 99.0435 28.7225C99.0322 28.2528 98.6872 22.2905 98.6872 22.2905C98.4907 19.294 95.754 17.4798 93.5385 17.4798L96.2032 33.7417C99.6082 33.7307 101.432 31.4285 102.394 28.9836C102.394 28.9836 104.432 23.6959 104.516 23.4556C104.537 23.685 105.982 33.7417 105.982 33.7417C109.39 33.7417 111.228 31.5859 112.217 29.2288L117 17.4798C113.632 17.4798 111.859 19.7796 110.944 22.2306ZM71.7563 10.2353L68.9917 32.5326L68.9843 32.529L68.4231 35.2863L68.6488 35.2935C71.6257 35.2569 73.7376 32.6449 74.1353 29.3508L75.732 16.5526C76.2165 12.6546 73.8926 10.2353 71.7563 10.2353Z" fill="#0A0A0A"/>
</svg>
